<svg xmlns="http://www.w3.org/2000/svg" xmlns:xlink="http://www.w3.org/1999/xlink" viewBox="0 0 2194.83 1380.82"><defs><style>.cls-1{fill:none;}.cls-2{isolation:isolate;}.cls-3{fill:url(#linear-gradient);}.cls-4{clip-path:url(#clip-path);}.cls-5{fill:#7d97f4;}.cls-6,.cls-8{fill:#91b3fa;}.cls-7{fill:#bdd0fb;}.cls-8{mix-blend-mode:overlay;}.cls-9{fill:url(#linear-gradient-2);}.cls-10{fill:url(#linear-gradient-3);}.cls-11{fill:url(#linear-gradient-4);}.cls-12{fill:url(#linear-gradient-5);}.cls-13{fill:url(#linear-gradient-6);}.cls-14{fill:url(#linear-gradient-7);}.cls-15{fill:url(#linear-gradient-8);}.cls-16,.cls-19{fill:#fff;}.cls-17{fill:url(#linear-gradient-9);}.cls-18{fill:url(#linear-gradient-10);}.cls-19{opacity:0.66;}.cls-20{fill:url(#linear-gradient-11);}.cls-21{fill:url(#linear-gradient-12);}.cls-22{fill:url(#linear-gradient-13);}.cls-23{fill:url(#linear-gradient-14);}.cls-24{fill:url(#linear-gradient-15);}.cls-25{fill:url(#linear-gradient-16);}.cls-26{fill:url(#linear-gradient-17);}.cls-27{fill:url(#linear-gradient-18);}.cls-28{fill:url(#linear-gradient-19);}.cls-29{fill:url(#linear-gradient-20);}.cls-30{fill:url(#linear-gradient-21);}.cls-31{fill:url(#linear-gradient-22);}.cls-32{fill:url(#linear-gradient-23);}.cls-33{fill:url(#linear-gradient-24);}.cls-34{fill:url(#linear-gradient-25);}.cls-35{fill:url(#linear-gradient-26);}.cls-36{fill:url(#linear-gradient-27);}.cls-37{fill:url(#linear-gradient-28);}.cls-38{fill:url(#linear-gradient-29);}.cls-39{fill:url(#linear-gradient-30);}.cls-40{fill:url(#linear-gradient-31);}.cls-41{fill:url(#linear-gradient-32);}.cls-42{fill:url(#linear-gradient-33);}.cls-43{fill:url(#linear-gradient-34);}.cls-44{fill:url(#linear-gradient-35);}.cls-45{fill:url(#linear-gradient-36);}.cls-46{fill:url(#linear-gradient-37);}.cls-47{fill:url(#linear-gradient-38);}.cls-48{fill:url(#linear-gradient-39);}.cls-49{fill:url(#linear-gradient-40);}.cls-50{fill:url(#linear-gradient-41);}.cls-51{fill:url(#linear-gradient-42);}.cls-52{fill:url(#linear-gradient-43);}.cls-53{fill:url(#linear-gradient-44);}.cls-54{fill:url(#linear-gradient-45);}.cls-55{fill:url(#linear-gradient-46);}.cls-56{fill:url(#linear-gradient-47);}.cls-57{fill:url(#linear-gradient-48);}.cls-58{fill:url(#linear-gradient-49);}.cls-59{fill:url(#linear-gradient-50);}.cls-60{fill:url(#linear-gradient-51);}.cls-61{fill:url(#linear-gradient-52);}.cls-62{fill:url(#linear-gradient-53);}.cls-63{fill:url(#linear-gradient-54);}.cls-64{fill:url(#linear-gradient-55);}.cls-65{fill:url(#linear-gradient-56);}.cls-66{fill:url(#linear-gradient-57);}.cls-67{fill:url(#linear-gradient-58);}.cls-68{fill:url(#linear-gradient-59);}.cls-69{fill:url(#linear-gradient-60);}.cls-70{fill:url(#linear-gradient-61);}.cls-71{fill:url(#linear-gradient-62);}.cls-72{fill:url(#linear-gradient-63);}.cls-73{fill:url(#linear-gradient-64);}.cls-74{fill:url(#linear-gradient-65);}.cls-75{fill:url(#linear-gradient-66);}.cls-76{fill:url(#linear-gradient-67);}.cls-77{fill:url(#linear-gradient-68);}.cls-78{fill:url(#linear-gradient-69);}.cls-79{fill:url(#linear-gradient-70);}.cls-80{fill:url(#linear-gradient-71);}</style><linearGradient id="linear-gradient" y1="709.64" x2="2194.83" y2="709.64" gradientUnits="userSpaceOnUse"><stop offset="0" stop-color="#dae3fe"/><stop offset="1" stop-color="#e9effd"/></linearGradient><clipPath id="clip-path" transform="translate(0 -19.23)"><rect class="cls-1" x="527.91" width="1230.98" height="1086.16"/></clipPath><linearGradient id="linear-gradient-2" x1="1877.95" y1="-90.88" x2="1706.94" y2="134.15" gradientTransform="translate(697.33 -991.99) rotate(45)" gradientUnits="userSpaceOnUse"><stop offset="0" stop-color="#4042e2"/><stop offset="1" stop-color="#4f52ff"/></linearGradient><linearGradient id="linear-gradient-3" x1="1909.73" y1="-66.72" x2="1738.71" y2="158.3" gradientTransform="matrix(1, 0, 0, 1, 0, 0)" xlink:href="#linear-gradient-2"/><linearGradient id="linear-gradient-4" x1="1941.89" y1="19.27" x2="1092.8" y2="850.35" gradientTransform="matrix(1, 0, 0, 1, 0, 0)" xlink:href="#linear-gradient-2"/><linearGradient id="linear-gradient-5" x1="1631.73" y1="145.72" x2="1439.71" y2="595.77" gradientTransform="translate(166.42 -433.36) rotate(16.84)" xlink:href="#linear-gradient-2"/><linearGradient id="linear-gradient-6" x1="1086.97" y1="1438.19" x2="1152.98" y2="1015.14" gradientTransform="matrix(1, 0, 0, 1, 0, 0)" xlink:href="#linear-gradient-2"/><linearGradient id="linear-gradient-7" x1="1105.26" y1="1441.04" x2="1171.26" y2="1018" gradientTransform="matrix(1, 0, 0, 1, 0, 0)" xlink:href="#linear-gradient-2"/><linearGradient id="linear-gradient-8" x1="1123.37" y1="1443.86" x2="1189.38" y2="1020.82" gradientTransform="matrix(1, 0, 0, 1, 0, 0)" xlink:href="#linear-gradient-2"/><linearGradient id="linear-gradient-9" x1="118.37" y1="555.05" x2="196.75" y2="464.07" gradientTransform="translate(475.05 42.2) rotate(56.6)" gradientUnits="userSpaceOnUse"><stop offset="0" stop-color="#e1473d"/><stop offset="1" stop-color="#e9605a"/></linearGradient><linearGradient id="linear-gradient-10" x1="241.05" y1="397.72" x2="9.27" y2="747.86" gradientTransform="translate(191.99 -40.72) rotate(22.5)" gradientUnits="userSpaceOnUse"><stop offset="0" stop-color="#fe7062"/><stop offset="1" stop-color="#ff928e"/></linearGradient><linearGradient id="linear-gradient-11" x1="234.13" y1="407.75" x2="110.72" y2="614.94" gradientTransform="matrix(1, 0, 0, 1, 0, 0)" xlink:href="#linear-gradient-10"/><linearGradient id="linear-gradient-12" x1="233.76" y1="520.48" x2="370.21" y2="362.1" gradientTransform="translate(363.02 -158.61) rotate(45)" xlink:href="#linear-gradient-9"/><linearGradient id="linear-gradient-13" x1="447.32" y1="246.58" x2="43.83" y2="856.13" gradientTransform="translate(363.02 -158.61) rotate(45)" xlink:href="#linear-gradient-10"/><linearGradient id="linear-gradient-14" x1="435.28" y1="264.05" x2="220.43" y2="624.74" gradientTransform="matrix(1, 0, 0, 1, 0, 0)" xlink:href="#linear-gradient-10"/><linearGradient id="linear-gradient-15" x1="239.27" y1="710.13" x2="350.6" y2="580.9" gradientTransform="translate(512.26 -80.12) rotate(45)" xlink:href="#linear-gradient-9"/><linearGradient id="linear-gradient-16" x1="413.51" y1="486.65" x2="84.29" y2="984" gradientTransform="translate(512.26 -80.12) rotate(45)" xlink:href="#linear-gradient-10"/><linearGradient id="linear-gradient-17" x1="403.69" y1="500.9" x2="228.39" y2="795.2" gradientTransform="matrix(1, 0, 0, 1, 0, 0)" xlink:href="#linear-gradient-10"/><linearGradient id="linear-gradient-18" x1="1255.9" y1="750.26" x2="1222.9" y2="1155.3" gradientUnits="userSpaceOnUse"><stop offset="0" stop-color="#09005d"/><stop offset="1" stop-color="#1a0f91"/></linearGradient><linearGradient id="linear-gradient-19" x1="1964.33" y1="807.98" x2="1931.33" y2="1213.02" xlink:href="#linear-gradient-18"/><linearGradient id="linear-gradient-20" x1="1294.41" y1="982.2" x2="1576.39" y2="1199.69" gradientTransform="matrix(1, 0, 0, 1, 0, 0)" xlink:href="#linear-gradient-10"/><linearGradient id="linear-gradient-21" x1="1873.85" y1="994.56" x2="1692.36" y2="1180.55" gradientTransform="matrix(1, 0, 0, 1, 0, 0)" xlink:href="#linear-gradient-10"/><linearGradient id="linear-gradient-22" x1="1599.93" y1="705.48" x2="1561.93" y2="1207.48" gradientTransform="matrix(1, 0, 0, 1, 0, 0)" xlink:href="#linear-gradient-10"/><linearGradient id="linear-gradient-23" x1="1573.42" y1="772.47" x2="1580" y2="1578.82" gradientTransform="matrix(1, 0, 0, 1, 0, 0)" xlink:href="#linear-gradient-9"/><linearGradient id="linear-gradient-24" x1="1271.76" y1="809.39" x2="1271.76" y2="945.88" gradientTransform="matrix(1, 0, 0, 1, 0, 0)" xlink:href="#linear-gradient-9"/><linearGradient id="linear-gradient-25" x1="1881.77" y1="809.39" x2="1881.77" y2="945.88" gradientTransform="matrix(1, 0, 0, 1, 0, 0)" xlink:href="#linear-gradient-9"/><linearGradient id="linear-gradient-26" x1="1553.18" y1="723.71" x2="1566.68" y2="908.2" gradientUnits="userSpaceOnUse"><stop offset="0" stop-color="#ff928e"/><stop offset="1" stop-color="#feb3b1"/></linearGradient><linearGradient id="linear-gradient-27" x1="1270.51" y1="844.79" x2="1883.02" y2="844.79" gradientTransform="matrix(1, 0, 0, 1, 0, 0)" xlink:href="#linear-gradient-9"/><linearGradient id="linear-gradient-28" x1="1575.83" y1="403.94" x2="1578.83" y2="745.97" gradientTransform="matrix(1, 0, 0, 1, 0, 0)" xlink:href="#linear-gradient-9"/><linearGradient id="linear-gradient-29" x1="1274.9" y1="971.35" x2="1355.2" y2="971.35" gradientTransform="matrix(1, 0, 0, 1, 0, 0)" xlink:href="#linear-gradient-9"/><linearGradient id="linear-gradient-30" x1="1792.74" y1="971.35" x2="1873.04" y2="971.35" gradientTransform="matrix(1, 0, 0, 1, 0, 0)" xlink:href="#linear-gradient-9"/><linearGradient id="linear-gradient-31" x1="-710.37" y1="841.99" x2="-729.37" y2="919.99" gradientTransform="translate(1290.1)" xlink:href="#linear-gradient-18"/><linearGradient id="linear-gradient-32" x1="-820.83" y1="1266.16" x2="-835.83" y2="1424.16" gradientTransform="translate(1290.1)" xlink:href="#linear-gradient-18"/><linearGradient id="linear-gradient-33" x1="-840.65" y1="1246.8" x2="-851.74" y2="1343.58" gradientTransform="translate(1290.1)" xlink:href="#linear-gradient-26"/><linearGradient id="linear-gradient-34" x1="-721.02" y1="1275.63" x2="-736.02" y2="1433.63" gradientTransform="translate(1290.1)" xlink:href="#linear-gradient-18"/><linearGradient id="linear-gradient-35" x1="-614.5" y1="865.34" x2="-633.5" y2="943.34" gradientTransform="translate(1290.1)" xlink:href="#linear-gradient-18"/><linearGradient id="linear-gradient-36" x1="-603.18" y1="1203.91" x2="-614.27" y2="1300.7" gradientTransform="translate(1064.53 17.57) rotate(-3.61)" xlink:href="#linear-gradient-26"/><linearGradient id="linear-gradient-37" x1="719.9" y1="1167.04" x2="1351.99" y2="391.68" gradientTransform="matrix(-1, 0, 0, 1, 1247.01, 0)" xlink:href="#linear-gradient-18"/><linearGradient id="linear-gradient-38" x1="-622.76" y1="770.97" x2="-499.21" y2="770.97" gradientTransform="translate(1290.1)" xlink:href="#linear-gradient-26"/><linearGradient id="linear-gradient-39" x1="-456.17" y1="673.96" x2="-448.9" y2="859.53" gradientTransform="translate(1290.1)" xlink:href="#linear-gradient-2"/><linearGradient id="linear-gradient-40" x1="442.79" y1="807.65" x2="530.12" y2="711.65" gradientTransform="matrix(1, 0, 0, 1, 0, 0)" xlink:href="#linear-gradient-9"/><linearGradient id="linear-gradient-41" x1="637.6" y1="669.89" x2="590.26" y2="800.56" xlink:href="#linear-gradient-26"/><linearGradient id="linear-gradient-42" x1="-382.51" y1="605.88" x2="-710.61" y2="1038.64" gradientTransform="translate(838.96 49.73) rotate(-7.69)" xlink:href="#linear-gradient-10"/><linearGradient id="linear-gradient-43" x1="533.19" y1="609.34" x2="469.86" y2="686.01" xlink:href="#linear-gradient-26"/><linearGradient id="linear-gradient-44" x1="765.57" y1="640.72" x2="680.08" y2="718.72" xlink:href="#linear-gradient-26"/><linearGradient id="linear-gradient-45" x1="-986.97" y1="2629.03" x2="-1057.63" y2="2705.03" gradientTransform="matrix(-1, 0, 0, 1, 1247.01, 0)" xlink:href="#linear-gradient-9"/><linearGradient id="linear-gradient-46" x1="-1031.76" y1="2587.37" x2="-1102.42" y2="2663.37" gradientTransform="matrix(-1, 0, 0, 1, 1247.01, 0)" xlink:href="#linear-gradient-9"/><linearGradient id="linear-gradient-47" x1="-378.96" y1="1211.71" x2="-430.29" y2="1127.71" gradientTransform="translate(1290.1)" xlink:href="#linear-gradient-26"/><linearGradient id="linear-gradient-48" x1="-792.34" y1="537" x2="-722.01" y2="627.55" gradientTransform="translate(1290.1)" xlink:href="#linear-gradient-18"/><linearGradient id="linear-gradient-49" x1="-401.68" y1="1225.59" x2="-453.02" y2="1141.59" gradientTransform="translate(1290.1)" xlink:href="#linear-gradient-26"/><linearGradient id="linear-gradient-50" x1="695.51" y1="787.54" x2="619.51" y2="862.21" xlink:href="#linear-gradient-26"/><linearGradient id="linear-gradient-51" x1="-400.32" y1="737.44" x2="-144.17" y2="873.8" gradientTransform="translate(1290.1)" xlink:href="#linear-gradient-2"/><linearGradient id="linear-gradient-52" x1="-346.31" y1="647.39" x2="-366.12" y2="587.95" gradientTransform="translate(1290.1)" xlink:href="#linear-gradient-26"/><linearGradient id="linear-gradient-53" x1="1065.78" y1="565" x2="957.78" y2="581" xlink:href="#linear-gradient-26"/><linearGradient id="linear-gradient-54" x1="4497.45" y1="5059.82" x2="4582.51" y2="5059.82" gradientTransform="matrix(-0.69, -0.73, -0.73, 0.69, 7715.61, 423.71)" xlink:href="#linear-gradient-18"/><linearGradient id="linear-gradient-55" x1="4447.54" y1="5111.8" x2="4504.65" y2="5053.2" gradientTransform="matrix(-0.69, -0.73, -0.73, 0.69, 7715.61, 423.71)" xlink:href="#linear-gradient-26"/><linearGradient id="linear-gradient-56" x1="2305.02" y1="1175.88" x2="2305.52" y2="1231.88" gradientTransform="matrix(-1, 0, 0, 1, 3294.93, 0)" xlink:href="#linear-gradient-18"/><linearGradient id="linear-gradient-57" x1="2262.19" y1="1318.82" x2="2348.2" y2="1318.82" gradientTransform="matrix(-1, 0, 0, 1, 3294.93, 0)" xlink:href="#linear-gradient-18"/><linearGradient id="linear-gradient-58" x1="2270.37" y1="1294.61" x2="2295.3" y2="1294.61" gradientTransform="matrix(-1, 0, 0, 1, 3294.93, 0)" xlink:href="#linear-gradient-26"/><linearGradient id="linear-gradient-59" x1="1201.46" y1="1295.03" x2="1236.46" y2="1152.03" xlink:href="#linear-gradient-18"/><linearGradient id="linear-gradient-60" x1="2086.02" y1="1308.15" x2="2135.79" y2="1308.15" gradientTransform="matrix(-1, 0, 0, 1, 3294.93, 0)" xlink:href="#linear-gradient-18"/><linearGradient id="linear-gradient-61" x1="2111.89" y1="1273.83" x2="2141.68" y2="1273.83" gradientTransform="matrix(-1, 0, 0, 1, 3294.93, 0)" xlink:href="#linear-gradient-26"/><linearGradient id="linear-gradient-62" x1="1035.62" y1="1159.73" x2="893.12" y2="1464.21" xlink:href="#linear-gradient-18"/><linearGradient id="linear-gradient-63" x1="812.92" y1="627.95" x2="785.02" y2="667.33" gradientTransform="translate(-123.21)" xlink:href="#linear-gradient-26"/><linearGradient id="linear-gradient-64" x1="814.74" y1="581.69" x2="750.74" y2="615.02" xlink:href="#linear-gradient-18"/><linearGradient id="linear-gradient-65" x1="804.39" y1="660.53" x2="725.66" y2="771.62" gradientTransform="translate(-123.21)" xlink:href="#linear-gradient-10"/><linearGradient id="linear-gradient-66" x1="751.77" y1="1375.57" x2="745.08" y2="1385.01" gradientTransform="matrix(0.98, -0.2, 0.11, 0.51, -192.48, 54.04)" gradientUnits="userSpaceOnUse"><stop offset="0" stop-color="#8d55d1"/><stop offset="1" stop-color="#1c2873"/></linearGradient><linearGradient id="linear-gradient-67" x1="847.12" y1="620.41" x2="789.36" y2="701.91" gradientTransform="translate(-123.21)" xlink:href="#linear-gradient-26"/><linearGradient id="linear-gradient-68" x1="-1670.1" y1="864.35" x2="-1800.01" y2="928.97" gradientTransform="translate(988.73 -1020.72) rotate(-63.49)" xlink:href="#linear-gradient-18"/><linearGradient id="linear-gradient-69" x1="-363.77" y1="674.91" x2="-88.38" y2="821.52" gradientTransform="translate(1290.1)" xlink:href="#linear-gradient-2"/><linearGradient id="linear-gradient-70" x1="937.26" y1="857.86" x2="821.77" y2="1003.35" gradientTransform="matrix(1, 0, 0, 1, 0, 0)" xlink:href="#linear-gradient-2"/><linearGradient id="linear-gradient-71" x1="1115.03" y1="836.81" x2="1021.7" y2="865.48" xlink:href="#linear-gradient-26"/></defs><g class="cls-2"><g id="Layer_2" data-name="Layer 2"><g id="Illustration"><path class="cls-3" d="M2109.78,740.81c-43.39-82.07-46.89-152.48-24.46-242.09,24.79-99,48.72-225.36-10.58-315.38-52.26-79.33-134.4-135.57-222.4-156.27C1740.63.79,1647.08,43.33,1557.5,114c-123,96.94-335.54,176-487,133.13C938.1,209.6,840.28,84.74,700.79,60.55c-96.2-16.68-239.61,9.89-270.56,126.66-8.12,30.62-7.8,64-20.94,92.53-30.42,66-107.47,59.73-165.16,65.69-62.4,6.45-127.77,38.47-176.08,80.93C35.94,454.59,10,492.89,2.17,536.69-7,588.14,13.26,646.25,57.18,672c64.93,38,135.28,25.16,153.2,118.91,19.12,100,10.24,200.32,40.7,299.74,77.7,253.67,328.44,345.34,559.58,297.06,181.37-37.88,356.44-8,540.93-34.67,75.72-10.94,155.52-36.14,225,0,66.43,34.56,102.29-24.12,175.18-4.22,44.66,12.19,91.69,6.48,137.29-.6,81.15-12.6,167.36-32.43,224.17-96,40.9-45.78,60.95-108.58,73.19-170.69C2213.58,943.59,2171.46,857.5,2109.78,740.81Z" transform="translate(0 -19.23)"/><g class="cls-4"><path class="cls-5" d="M1323.48,184.44A20.77,20.77,0,0,0,1303,164H880.92c-11.32,0-22.43,9.73-22.43,21.12V1203.52c0,5.49,3.13,10.74,7,14.61a21.57,21.57,0,0,0,15,6l441.3-1.22a20.69,20.69,0,0,0,14.71-6.2,21.06,21.06,0,0,0,5.9-14.94Z" transform="translate(0 -19.23)"/><polygon class="cls-6" points="1012.64 264.73 892.4 264.56 891.45 202.51 1011.8 202.51 1012.64 264.73"/><polygon class="cls-6" points="1147.42 264.7 1027.3 264.53 1026.47 202.51 1146.71 202.51 1147.42 264.7"/><polygon class="cls-6" points="1282.06 264.67 1162.06 264.5 1161.37 202.51 1281.48 202.51 1282.06 264.67"/><polygon class="cls-6" points="1014.14 376.12 894.11 376.19 893.16 314.54 1013.31 314.49 1014.14 376.12"/><polygon class="cls-6" points="1148.68 376.03 1028.78 376.11 1027.95 314.49 1147.98 314.44 1148.68 376.03"/><polygon class="cls-6" points="1283.09 375.94 1163.3 376.02 1162.61 314.43 1282.52 314.38 1283.09 375.94"/><polygon class="cls-6" points="1015.64 486.74 895.82 486.87 894.87 425.43 1014.81 425.33 1015.64 486.74"/><polygon class="cls-6" points="1149.95 486.6 1030.25 486.73 1029.43 425.32 1149.25 425.22 1149.95 486.6"/><polygon class="cls-6" points="1284.12 486.46 1164.54 486.59 1163.85 425.21 1283.55 425.11 1284.12 486.46"/><polygon class="cls-6" points="1017.13 596.99 897.52 597.16 896.58 535.93 1016.3 535.79 1017.13 596.99"/><polygon class="cls-6" points="1151.21 596.79 1031.71 596.96 1030.9 535.77 1150.51 535.62 1151.21 596.79"/><polygon class="cls-6" points="1285.14 596.59 1165.77 596.77 1165.09 535.6 1284.58 535.45 1285.14 596.59"/><polygon class="cls-6" points="1018.62 706.85 899.22 707.07 898.27 646.06 1017.79 645.86 1018.62 706.85"/><polygon class="cls-6" points="1152.46 706.6 1033.17 706.82 1032.36 645.84 1151.77 645.64 1152.46 706.6"/><polygon class="cls-6" points="1286.17 706.34 1167 706.57 1166.32 645.61 1285.6 645.42 1286.17 706.34"/><polygon class="cls-6" points="1020.1 816.33 900.9 816.6 899.97 755.8 1019.28 755.55 1020.1 816.33"/><polygon class="cls-6" points="1153.71 816.02 1034.63 816.29 1033.82 755.52 1153.02 755.28 1153.71 816.02"/><polygon class="cls-6" points="1287.19 815.72 1168.23 815.99 1167.55 755.25 1286.62 755 1287.19 815.72"/><polygon class="cls-6" points="1021.58 925.43 902.59 925.75 901.65 865.16 1020.76 864.87 1021.58 925.43"/><polygon class="cls-6" points="1154.96 925.07 1036.08 925.39 1035.28 864.83 1154.27 864.54 1154.96 925.07"/><polygon class="cls-6" points="1288.2 924.72 1169.45 925.03 1168.77 864.5 1287.64 864.21 1288.2 924.72"/><polygon class="cls-6" points="1023.05 1034.16 904.26 1034.53 903.33 974.15 1022.24 973.8 1023.05 1034.16"/><polygon class="cls-6" points="1156.2 1033.75 1037.53 1034.12 1036.73 973.76 1155.51 973.42 1156.2 1033.75"/><polygon class="cls-6" points="1289.22 1033.34 1170.66 1033.71 1169.99 973.38 1288.65 973.04 1289.22 1033.34"/><polygon class="cls-6" points="1024.52 1142.52 905.93 1142.94 905.01 1082.76 1023.7 1082.37 1024.52 1142.52"/><polygon class="cls-6" points="1157.44 1142.05 1038.97 1142.47 1038.17 1082.32 1156.75 1081.93 1157.44 1142.05"/><polygon class="cls-6" points="1290.22 1141.59 1171.88 1142 1171.2 1081.88 1289.66 1081.5 1290.22 1141.59"/><path class="cls-6" d="M950.15,507.62c-.18-6.29-8.18-11.47-18-11.47H561.7c-9.93,0-19.68,5.45-19.68,11.83v570c0,3.07,2.75,6,6.13,8.18s8.4,3.38,13.18,3.37l387.34-.68a24.24,24.24,0,0,0,12.91-3.47c3.37-2.21,5.27-5.27,5.18-8.36Z" transform="translate(0 -19.23)"/><polygon class="cls-7" points="677.32 544.09 571.78 544 570.95 509.26 676.59 509.26 677.32 544.09"/><polygon class="cls-7" points="795.62 544.07 690.19 543.98 689.47 509.26 795 509.26 795.62 544.07"/><polygon class="cls-7" points="913.8 544.05 808.47 543.96 807.86 509.26 913.29 509.26 913.8 544.05"/><polygon class="cls-7" points="678.64 606.43 573.29 606.47 572.45 571.97 677.91 571.94 678.64 606.43"/><polygon class="cls-7" points="796.73 606.38 691.48 606.42 690.76 571.93 796.11 571.91 796.73 606.38"/><polygon class="cls-7" points="914.7 606.33 809.56 606.37 808.96 571.9 914.2 571.88 914.7 606.33"/><polygon class="cls-7" points="679.96 668.34 574.78 668.41 573.95 634.02 679.23 633.97 679.96 668.34"/><polygon class="cls-7" points="797.84 668.26 692.77 668.33 692.06 633.96 797.23 633.91 797.84 668.26"/><polygon class="cls-7" points="915.61 668.18 810.65 668.25 810.04 633.9 915.11 633.84 915.61 668.18"/><polygon class="cls-7" points="681.27 730.03 576.28 730.13 575.45 695.87 680.54 695.78 681.27 730.03"/><polygon class="cls-7" points="798.95 729.92 694.06 730.02 693.35 695.77 798.33 695.69 798.95 729.92"/><polygon class="cls-7" points="916.51 729.81 811.73 729.91 811.13 695.68 916.01 695.6 916.51 729.81"/><polygon class="cls-7" points="682.57 791.52 577.76 791.64 576.94 757.5 681.85 757.39 682.57 791.52"/><polygon class="cls-7" points="800.05 791.38 695.35 791.5 694.63 757.37 799.44 757.26 800.05 791.38"/><polygon class="cls-7" points="917.41 791.24 812.81 791.36 812.21 757.25 916.91 757.14 917.41 791.24"/><polygon class="cls-7" points="683.87 852.79 579.25 852.94 578.42 818.91 683.15 818.77 683.87 852.79"/><polygon class="cls-7" points="801.14 852.62 696.63 852.77 695.91 818.76 800.54 818.62 801.14 852.62"/><polygon class="cls-7" points="918.3 852.45 813.88 852.6 813.29 818.6 917.8 818.47 918.3 852.45"/><polygon class="cls-7" points="685.17 913.85 580.73 914.03 579.9 880.12 684.45 879.95 685.17 913.85"/><polygon class="cls-7" points="802.24 913.65 697.9 913.83 697.19 879.93 801.63 879.77 802.24 913.65"/><polygon class="cls-7" points="919.19 913.45 814.96 913.63 814.36 879.75 918.7 879.58 919.19 913.45"/><polygon class="cls-7" points="686.46 974.7 582.2 974.91 581.38 941.11 685.74 940.92 686.46 974.7"/><polygon class="cls-7" points="803.33 974.47 699.17 974.67 698.46 940.9 802.72 940.71 803.33 974.47"/><polygon class="cls-7" points="920.08 974.24 816.02 974.44 815.43 940.68 919.59 940.49 920.08 974.24"/><polygon class="cls-7" points="687.75 1035.34 583.66 1035.57 582.85 1001.89 687.03 1001.68 687.75 1035.34"/><polygon class="cls-7" points="804.41 1035.08 700.43 1035.31 699.73 1001.65 803.81 1001.43 804.41 1035.08"/><polygon class="cls-7" points="920.97 1034.82 817.09 1035.05 816.5 1001.41 920.48 1001.19 920.97 1034.82"/><path class="cls-6" d="M1707.59,494.83c-.12-3.57-5.5-6.44-12.08-6.44H1296.13c-6.67,0-13.76,3-13.76,6.58v505.2c0,2.7,2.82,5.29,6.35,7.2s8.73,3,13.71,3l403.75-.59a28.78,28.78,0,0,0,13.45-3.06c3.52-1.94,5.5-4.58,5.4-7.3Z" transform="translate(0 -19.23)"/><polygon class="cls-8" points="1478.23 504.96 1347.59 504.72 1347.63 495.86 1478.13 496.08 1478.23 504.96"/><polygon class="cls-8" points="1478.59 537.6 1347.41 537.27 1347.46 528.34 1478.49 528.64 1478.59 537.6"/><polygon class="cls-8" points="1478.95 570.5 1347.23 570.1 1347.28 561.09 1478.85 561.47 1478.95 570.5"/><polygon class="cls-8" points="1479.32 603.68 1347.04 603.19 1347.09 594.11 1479.22 594.58 1479.32 603.68"/><polygon class="cls-8" points="1479.68 637.13 1346.86 636.56 1346.91 627.41 1479.58 627.95 1479.68 637.13"/><polygon class="cls-8" points="1480.43 704.88 1346.49 704.14 1346.54 694.83 1480.32 695.55 1480.43 704.88"/><polygon class="cls-8" points="1481.57 808.67 1345.92 807.67 1345.97 798.12 1481.46 799.1 1481.57 808.67"/><polygon class="cls-8" points="1480.05 670.87 1346.68 670.21 1346.73 660.98 1479.95 661.61 1480.05 670.87"/><polygon class="cls-8" points="1480.8 739.19 1346.3 738.36 1346.35 728.97 1480.7 729.78 1480.8 739.19"/><polygon class="cls-8" points="1481.18 773.78 1346.11 772.87 1346.16 763.4 1481.08 764.29 1481.18 773.78"/><polygon class="cls-8" points="1481.95 843.86 1345.73 842.76 1345.78 833.13 1481.85 834.21 1481.95 843.86"/><polygon class="cls-8" points="1482.34 879.35 1345.53 878.16 1345.59 868.44 1482.23 869.61 1482.34 879.35"/><polygon class="cls-8" points="1482.73 915.15 1345.34 913.86 1345.39 904.06 1482.63 905.33 1482.73 915.15"/><polygon class="cls-8" points="1483.13 951.25 1345.14 949.87 1345.19 939.99 1483.02 941.35 1483.13 951.25"/><polygon class="cls-8" points="1649.52 505.29 1518.05 505.04 1517.91 496.15 1649.23 496.38 1649.52 505.29"/><polygon class="cls-8" points="1650.59 538.02 1518.58 537.7 1518.43 528.74 1650.29 529.04 1650.59 538.02"/><polygon class="cls-8" points="1651.66 571.03 1519.1 570.63 1518.96 561.59 1651.37 561.98 1651.66 571.03"/><polygon class="cls-8" points="1652.74 604.32 1519.63 603.83 1519.49 594.72 1652.45 595.19 1652.74 604.32"/><polygon class="cls-8" points="1653.84 637.88 1520.17 637.31 1520.02 628.12 1653.54 628.67 1653.84 637.88"/><polygon class="cls-8" points="1656.05 705.86 1521.25 705.11 1521.1 695.77 1655.75 696.49 1656.05 705.86"/><polygon class="cls-8" points="1659.44 810 1522.91 808.98 1522.76 799.4 1659.13 800.39 1659.44 810"/><polygon class="cls-8" points="1654.94 671.73 1520.71 671.07 1520.56 661.8 1654.64 662.44 1654.94 671.73"/><polygon class="cls-8" points="1657.17 740.28 1521.8 739.44 1521.65 730.02 1656.87 730.83 1657.17 740.28"/><polygon class="cls-8" points="1658.3 774.99 1522.36 774.07 1522.2 764.56 1657.99 765.46 1658.3 774.99"/><polygon class="cls-8" points="1660.6 845.3 1523.48 844.2 1523.32 834.53 1660.28 835.62 1660.6 845.3"/><polygon class="cls-8" points="1661.76 880.92 1524.05 879.72 1523.89 869.97 1661.44 871.14 1661.76 880.92"/><polygon class="cls-8" points="1662.92 916.84 1524.62 915.54 1524.46 905.71 1662.6 906.98 1662.92 916.84"/><polygon class="cls-8" points="1664.11 953.07 1525.2 951.68 1525.04 941.76 1663.78 943.13 1664.11 953.07"/></g><path class="cls-5" d="M1743.17,62.18a2.19,2.19,0,0,1-.83-4.22c2.75-1.12,5.54-2.18,8.31-3.15A2.19,2.19,0,1,1,1752.1,59c-2.7.94-5.42,2-8.1,3.07A2.19,2.19,0,0,1,1743.17,62.18Z" transform="translate(0 -19.23)"/><path class="cls-5" d="M1971.41,267.41a2.17,2.17,0,0,1-2.11-2.8,168.6,168.6,0,0,0,4-17.08,2.19,2.19,0,0,1,4.32.77,171.49,171.49,0,0,1-4.1,17.53A2.19,2.19,0,0,1,1971.41,267.41Zm6.69-46h0a2.21,2.21,0,0,1-2.18-2.22v-1.31c0-1.92,0-3.85-.1-5.79-.12-3.48-.34-7-.67-10.42a2.2,2.2,0,0,1,4.37-.42c.34,3.53.57,7.12.69,10.69q.1,3,.1,5.94v1.35A2.2,2.2,0,0,1,1978.1,221.39Zm-5.92-46.13a2.2,2.2,0,0,1-2.12-1.62A168,168,0,0,0,1964.6,157a2.19,2.19,0,1,1,4.09-1.58,170.64,170.64,0,0,1,5.61,17.09,2.2,2.2,0,0,1-1.55,2.69A1.87,1.87,0,0,1,1972.18,175.26ZM1954,132.49a2.19,2.19,0,0,1-1.88-1.07,168.79,168.79,0,0,0-9.78-14.55,2.19,2.19,0,0,1,3.51-2.63,173.54,173.54,0,0,1,10,14.92,2.19,2.19,0,0,1-.75,3A2.11,2.11,0,0,1,1954,132.49Zm-29.1-36.26a2.14,2.14,0,0,1-1.51-.61A172.22,172.22,0,0,0,1910,84.24a2.19,2.19,0,1,1,2.67-3.48,174.87,174.87,0,0,1,13.68,11.68,2.19,2.19,0,0,1,.09,3.1A2.17,2.17,0,0,1,1924.88,96.23Zm-37.8-27.1a2.07,2.07,0,0,1-1-.26,171,171,0,0,0-15.92-7.36,2.19,2.19,0,1,1,1.63-4.07A172.33,172.33,0,0,1,1888.1,65a2.2,2.2,0,0,1-1,4.14Zm-43.73-15.86a1.85,1.85,0,0,1-.46-.05,171.24,171.24,0,0,0-17.31-2.75,2.19,2.19,0,0,1,.46-4.36,174.69,174.69,0,0,1,17.77,2.82,2.19,2.19,0,0,1-.46,4.34Zm-64-1.37a2.2,2.2,0,0,1-.36-4.36,174.64,174.64,0,0,1,17.88-2,2.19,2.19,0,0,1,.27,4.38,168.49,168.49,0,0,0-17.42,2Z" transform="translate(0 -19.23)"/><path class="cls-5" d="M1956.94,302.24a2.16,2.16,0,0,1-1.06-.28,2.2,2.2,0,0,1-.86-3c1.39-2.51,2.73-5.09,4-7.68a2.19,2.19,0,0,1,3.94,1.92c-1.29,2.66-2.67,5.31-4.1,7.88A2.19,2.19,0,0,1,1956.94,302.24Z" transform="translate(0 -19.23)"/><path class="cls-5" d="M1850.23,385a2.19,2.19,0,0,1-.55-4.32c2.78-.71,5.58-1.51,8.33-2.37a2.2,2.2,0,1,1,1.31,4.19c-2.82.88-5.7,1.7-8.55,2.43A2,2,0,0,1,1850.23,385Z" transform="translate(0 -19.23)"/><path class="cls-5" d="M1807.6,390.35c-1,0-1.91,0-2.86,0a2.19,2.19,0,0,1-2.16-2.23,2.15,2.15,0,0,1,2.23-2.15q4.26.07,8.57-.08c2.9-.1,5.81-.27,8.68-.51a2.19,2.19,0,1,1,.37,4.37c-2.94.25-5.93.43-8.9.53Q1810.56,390.36,1807.6,390.35Zm-31.06-2.84a1.87,1.87,0,0,1-.4,0,171.75,171.75,0,0,1-17.22-4.11,2.19,2.19,0,0,1,1.24-4.21,166.4,166.4,0,0,0,16.78,4,2.19,2.19,0,0,1-.4,4.35Zm-43.46-14.33a2.09,2.09,0,0,1-1-.23,171.91,171.91,0,0,1-15.49-8.57,2.19,2.19,0,0,1,2.32-3.72A169.38,169.38,0,0,0,1734,369a2.2,2.2,0,0,1-1,4.17ZM1695,347.77a2.19,2.19,0,0,1-1.45-.55,175.8,175.8,0,0,1-12.66-12.36,2.19,2.19,0,1,1,3.22-3,171.14,171.14,0,0,0,12.34,12.05,2.19,2.19,0,0,1-1.45,3.84Zm-30-34.57a2.19,2.19,0,0,1-1.84-1,174,174,0,0,1-8.93-15.28,2.2,2.2,0,0,1,3.9-2,169.26,169.26,0,0,0,8.7,14.9,2.19,2.19,0,0,1-.63,3A2.13,2.13,0,0,1,1665.06,313.2Zm-19.69-41.29a2.19,2.19,0,0,1-2.09-1.53,172.85,172.85,0,0,1-4.51-17.11,2.2,2.2,0,1,1,4.3-.9,167.63,167.63,0,0,0,4.39,16.68,2.19,2.19,0,0,1-1.42,2.75A2,2,0,0,1,1645.37,271.91Zm-7.93-45.06a2.18,2.18,0,0,1-2.19-2.11l0-1.16c-.06-2-.1-4-.1-5.93,0-3.53.11-7.09.33-10.61a2.19,2.19,0,0,1,4.38.27c-.21,3.42-.32,6.9-.32,10.34,0,1.92,0,3.85.1,5.78l0,1.14a2.19,2.19,0,0,1-2.11,2.28Zm4.26-45.57a2,2,0,0,1-.49-.05,2.21,2.21,0,0,1-1.65-2.64,173.67,173.67,0,0,1,4.89-17,2.19,2.19,0,1,1,4.15,1.43,167.65,167.65,0,0,0-4.76,16.58A2.2,2.2,0,0,1,1641.7,181.28Z" transform="translate(0 -19.23)"/><path class="cls-5" d="M1658,138.42a2.2,2.2,0,0,1-1.93-3.25c1.41-2.57,2.91-5.16,4.46-7.68a2.19,2.19,0,0,1,3.74,2.29c-1.52,2.47-3,5-4.35,7.49A2.19,2.19,0,0,1,1658,138.42Z" transform="translate(0 -19.23)"/><path class="cls-5" d="M1705.64,135.78a2,2,0,0,0-.39,2.34l10.94,22.36A108.47,108.47,0,0,0,1702.8,193l-23.5,8.15a2,2,0,0,0-1.38,1.94l.06,29.85a2,2,0,0,0,1.38,1.93l23.54,8.07a108.43,108.43,0,0,0,13.51,32.43l-10.86,22.39a2,2,0,0,0,.4,2.34l21.15,21.08a2.06,2.06,0,0,0,2.34.39l22.36-10.95A108.32,108.32,0,0,0,1784.28,324l8.15,23.51a2.06,2.06,0,0,0,1.94,1.37l29.86-.06a2,2,0,0,0,1.93-1.38l8.06-23.53a108.34,108.34,0,0,0,32.43-13.52l22.4,10.86a2.06,2.06,0,0,0,2.34-.39l21.07-21.16a2,2,0,0,0,.39-2.34L1901.9,275a108.43,108.43,0,0,0,13.4-32.47l23.5-8.16a2,2,0,0,0,1.37-1.93l-.05-29.86a2,2,0,0,0-1.38-1.93l-23.54-8.07a108.52,108.52,0,0,0-13.51-32.42l10.86-22.4a2,2,0,0,0-.4-2.34L1891,114.32a2,2,0,0,0-2.35-.39l-22.35,10.94a108.32,108.32,0,0,0-32.48-13.39L1825.67,88a2.06,2.06,0,0,0-1.94-1.38l-29.86.06a2,2,0,0,0-1.93,1.38l-8.06,23.53a108.34,108.34,0,0,0-32.43,13.52l-22.4-10.86a2,2,0,0,0-2.34.4Z" transform="translate(0 -19.23)"/><path class="cls-6" d="M1809.05,246.44a28.72,28.72,0,1,1,7.08-.89A28.76,28.76,0,0,1,1809.05,246.44Zm0-53a24.32,24.32,0,1,0,23.53,18.33,24.35,24.35,0,0,0-23.53-18.33Z" transform="translate(0 -19.23)"/><path class="cls-6" d="M1809.53,292.38a74.26,74.26,0,0,1-74.24-74.1v-.13a75.28,75.28,0,0,1,1.42-14.54c.07-.35.15-.7.22-1.05a2.19,2.19,0,0,1,4.34.45,1.8,1.8,0,0,1,0,.46,70.7,70.7,0,0,0-1.54,14.68v.12h0A69.87,69.87,0,0,0,1809.53,288h.14a69.94,69.94,0,0,0,69.72-69.85V218a69.94,69.94,0,0,0-69.85-69.72h-.14a69.73,69.73,0,0,0-35.84,10,2.2,2.2,0,0,1-2.27-3.76,74.15,74.15,0,0,1,38.1-10.59h.15a74.32,74.32,0,0,1,74.24,74.1v.15a74.34,74.34,0,0,1-74.1,74.23Z" transform="translate(0 -19.23)"/><path class="cls-5" d="M1916.47,385.81l7.11,12a60.54,60.54,0,0,0-6,18.74l-12.77,5.59a1.17,1.17,0,0,0-.68,1.15l1.36,16.67a1.14,1.14,0,0,0,.86,1l13.5,3.46a60.75,60.75,0,0,0,9,17.51l-5.07,13a1.15,1.15,0,0,0,.32,1.29l12.75,10.83a1.15,1.15,0,0,0,1.33.11l12-7.1a60.65,60.65,0,0,0,18.73,6l5.6,12.77a1.15,1.15,0,0,0,1.14.68l16.68-1.36a1.14,1.14,0,0,0,1-.85l3.46-13.51a60.38,60.38,0,0,0,17.51-9l13,5.08a1.17,1.17,0,0,0,1.29-.33l10.83-12.75a1.16,1.16,0,0,0,.11-1.33l-7.11-12a60.4,60.4,0,0,0,6-18.73l12.77-5.6a1.14,1.14,0,0,0,.68-1.14l-1.36-16.68a1.14,1.14,0,0,0-.86-1l-13.5-3.46a60.75,60.75,0,0,0-9-17.51l5.07-13a1.14,1.14,0,0,0-.32-1.29l-12.75-10.83a1.15,1.15,0,0,0-1.33-.12l-12,7.11a60.4,60.4,0,0,0-18.73-6l-5.6-12.76a1.15,1.15,0,0,0-1.14-.69l-16.68,1.36a1.15,1.15,0,0,0-1,.86l-3.46,13.5a60.62,60.62,0,0,0-17.51,9l-13-5.07a1.15,1.15,0,0,0-1.29.32l-10.83,12.75A1.16,1.16,0,0,0,1916.47,385.81Z" transform="translate(0 -19.23)"/><path class="cls-6" d="M1978,442.71a17.08,17.08,0,0,1-16.15-11.55h0A17.06,17.06,0,1,1,1978,442.71Zm-12-13a12.66,12.66,0,1,0,7.9-16.07,12.68,12.68,0,0,0-7.9,16.07Z" transform="translate(0 -19.23)"/><path class="cls-5" d="M1921.38,358.28a2.2,2.2,0,0,1-1.38-3.9c2.32-1.89,4.76-3.68,7.24-5.32a2.19,2.19,0,1,1,2.42,3.66c-2.36,1.56-4.68,3.27-6.89,5.07A2.21,2.21,0,0,1,1921.38,358.28Z" transform="translate(0 -19.23)"/><path class="cls-5" d="M2066,410.63a2.21,2.21,0,0,1-2.15-1.77,88.27,88.27,0,0,0-3.05-11.42c-.5-1.44-1-2.85-1.58-4.25a2.2,2.2,0,0,1,4.08-1.63c.58,1.47,1.13,2.95,1.65,4.46a92.28,92.28,0,0,1,3.21,12,2.19,2.19,0,0,1-1.73,2.57A2.1,2.1,0,0,1,2066,410.63Zm-18.49-39.45a2.21,2.21,0,0,1-1.7-.81,86.7,86.7,0,0,0-11.45-11.62,2.19,2.19,0,1,1,2.82-3.36,91.31,91.31,0,0,1,12,12.21,2.19,2.19,0,0,1-1.7,3.58Zm-34.91-26.05a2.34,2.34,0,0,1-.85-.17,86.89,86.89,0,0,0-15.58-4.88,2.19,2.19,0,1,1,.91-4.29,92.19,92.19,0,0,1,16.37,5.12,2.19,2.19,0,0,1-.85,4.22Zm-59.51-3.42a2.2,2.2,0,0,1-.61-4.31,92.52,92.52,0,0,1,16.84-3.22,2.2,2.2,0,1,1,.42,4.37,88.18,88.18,0,0,0-16,3.07A2.15,2.15,0,0,1,1953.1,341.71Z" transform="translate(0 -19.23)"/><path class="cls-5" d="M2065.74,446.49a2.4,2.4,0,0,1-.46-.05,2.19,2.19,0,0,1-1.69-2.6c.59-2.78,1.06-5.63,1.37-8.45a2.19,2.19,0,0,1,4.36.49,88.56,88.56,0,0,1-1.44,8.87A2.2,2.2,0,0,1,2065.74,446.49Z" transform="translate(0 -19.23)"/><path class="cls-5" d="M2021,506.55a2.19,2.19,0,0,1-1-4.12,84.69,84.69,0,0,0,7.3-4.46,2.2,2.2,0,0,1,2.47,3.63,89.28,89.28,0,0,1-7.67,4.69A2.18,2.18,0,0,1,2021,506.55Z" transform="translate(0 -19.23)"/><path class="cls-5" d="M1979.61,517.55a2.2,2.2,0,0,1,0-4.39,86.67,86.67,0,0,0,16-1.77,2.19,2.19,0,1,1,.88,4.3,91.8,91.8,0,0,1-16.76,1.86ZM1953.16,514a2.13,2.13,0,0,1-.61-.08,92.31,92.31,0,0,1-15.7-6.15,2.19,2.19,0,0,1,2-3.92,87.57,87.57,0,0,0,15,5.85,2.19,2.19,0,0,1-.61,4.3ZM1916,492.69a2.22,2.22,0,0,1-1.52-.6,92.29,92.29,0,0,1-11.07-12.71,2.2,2.2,0,0,1,3.57-2.57,86.6,86.6,0,0,0,10.53,12.1,2.2,2.2,0,0,1,.07,3.11A2.16,2.16,0,0,1,1916,492.69Zm-23-36.14a2.2,2.2,0,0,1-2.08-1.49,93.19,93.19,0,0,1-3.92-16.4,2.19,2.19,0,0,1,4.34-.63,88.12,88.12,0,0,0,3.74,15.62,2.2,2.2,0,0,1-1.38,2.78A2.15,2.15,0,0,1,1893,456.55Z" transform="translate(0 -19.23)"/><path class="cls-5" d="M1889.41,413.77a2.11,2.11,0,0,1-.35,0,2.2,2.2,0,0,1-1.82-2.52c.48-3,1.1-5.91,1.86-8.79a2.19,2.19,0,1,1,4.24,1.11c-.72,2.75-1.31,5.57-1.76,8.38A2.2,2.2,0,0,1,1889.41,413.77Z" transform="translate(0 -19.23)"/><path class="cls-6" d="M1978.24,468.43a42.61,42.61,0,0,1-42.39-39.11c-.1-1.15-.14-2.32-.14-3.48a43,43,0,0,1,.3-5.08l.06-.49a2.19,2.19,0,0,1,4.37.28,2.83,2.83,0,0,1,0,.29,37.78,37.78,0,0,0-.32,5c0,1,0,2.09.12,3.14.07.79.15,1.57.27,2.35h0a38.19,38.19,0,0,0,40.88,32.59,38.22,38.22,0,0,0,35.07-38c0-1,0-2.08-.12-3.13a38.18,38.18,0,0,0-60.24-28,2.2,2.2,0,0,1-3.07-.5,2.26,2.26,0,0,1-.41-1.28,2.17,2.17,0,0,1,.92-1.78,42.57,42.57,0,0,1,67.17,31.18c.1,1.17.14,2.33.14,3.48a42.62,42.62,0,0,1-39.11,42.39C1980.55,468.38,1979.39,468.43,1978.24,468.43Z" transform="translate(0 -19.23)"/><path class="cls-7" d="M351.74,340.89c-13.13,5.49-26,14.08-30.25,23.36-19.33,41.86,22.72,94,39.05,129.65,28.07,61.16,42.43,129.22,33.7,196.4-9.45,72.8-12.71,144,3,216.41,8.09,37.32,22.67,76.41,49.89,104.4,51.44,52.86,165.51,11.19,182-54.7,13.14-52.56,1-107.41-16.89-157.2-30-83.77-73.3-162-103.84-245.52C485,489.8,480.07,358.9,400.34,337,385.76,333,365.67,335.07,351.74,340.89Z" transform="translate(0 -19.23)"/><path class="cls-6" d="M538.27,1137.87a3.11,3.11,0,0,1-.43,0,3.3,3.3,0,0,1-2.84-3.69c29.69-225.87-18.79-422.25-64.68-547.23C420.57,451.43,363,368.32,362.46,367.5a3.29,3.29,0,1,1,5.4-3.77c.58.83,58.51,84.49,108.56,220.71,46.19,125.72,95,323.28,65.11,550.57A3.3,3.3,0,0,1,538.27,1137.87Z" transform="translate(0 -19.23)"/><path class="cls-6" d="M457.47,973.17C445.8,937.64,414.67,905.82,391,874c-12.48-16.85-23.2-34.42-29.63-54.51s-7.81-44.34-25.12-58.71c-34.88-28.94-64.71,7.32-72.56,46.35-9.12,45.29,10.67,101.76,21.6,147.44,6.58,27.53,10.53,57.19,20.11,83.79,15.87,44.08,39.81,68.15,69.49,77.57a67.3,67.3,0,0,0,76.16-26.49C466.21,1067,476.29,1030.49,457.47,973.17Z" transform="translate(0 -19.23)"/><path class="cls-5" d="M446.47,1172.65a3.32,3.32,0,0,1-2.66-1.34c-1.35-1.84-135.24-185.66-151.47-379.28a3.29,3.29,0,0,1,6.56-.55C315,983.22,447.78,1165.58,449.12,1167.4a3.29,3.29,0,0,1-2.65,5.25Z" transform="translate(0 -19.23)"/><path class="cls-7" d="M1821.45,740.45c-9-18.8-15.48-38.48-17-59.91-3.79-54,27.6-103.73,50.65-150.22,21.2-42.72,37-106.39-34.56-100.73-57,4.52-124,61.3-131.6,120.5-9,70.07,25.07,158.44-15.37,222.09-56.59,89.05-97.4,68.64-97.4,218.91,0,64.2,35.57,99.62,76.3,119.13A170.47,170.47,0,0,0,1844.67,1079c45.26-43.8,72.17-106.76,63.07-170C1898.55,845.17,1848.47,796.76,1821.45,740.45Z" transform="translate(0 -19.23)"/><path class="cls-6" d="M1773.64,1224.87a3.3,3.3,0,0,1-3.19-2.49c-35.47-141.57-54.77-269.91-57.38-381.46-2.09-89.38,6.47-168.27,25.45-234.48,32.48-113.32,83.59-149.83,85.75-151.33a3.29,3.29,0,0,1,3.76,5.41h0c-.13.09-13,9.22-29.65,32-15.38,21-37.19,58.35-53.78,116.62-18.68,65.59-27.06,143.78-24.93,232.42,2.67,110.88,21.9,238.47,57.17,379.24a3.29,3.29,0,0,1-2.4,4A3.08,3.08,0,0,1,1773.64,1224.87Z" transform="translate(0 -19.23)"/><path class="cls-7" d="M1878.22,582a23.86,23.86,0,0,0-9-.61c-17.82,2.05-25.14,20.84-30.38,35.54-4.48,12.58-9.76,27.86-7.12,41.49,2.87,14.74,18.52,26.77,29.88,11.8,12.91-17,32.28-43.13,32.4-65.67C1894.05,593.38,1887.76,584.63,1878.22,582Z" transform="translate(0 -19.23)"/><path class="cls-6" d="M2054.2,928.39c7.29-48-10.16-103.16-18.87-153.95-4.61-26.85-6.74-53.5-2.43-80.56,4.29-26.89,16.93-56,5.28-82.78-23.48-54-79.3-29.42-111.28,11.22-37.1,47.17-47.24,124.24-61.34,183.58-8.49,35.78-21.29,72.47-25.77,108.93-7.42,60.4,6.23,102.33,35.12,130.64a87.44,87.44,0,0,0,103.81,13.92C2009.35,1042.33,2042.44,1005.86,2054.2,928.39Z" transform="translate(0 -19.23)"/><path class="cls-5" d="M1926.51,1152.67a3.3,3.3,0,0,1-3.25-2.75c-.12-.73-12.27-74.08-12.59-175.26-.3-93.44,9.73-230.47,59.14-352.64a3.29,3.29,0,1,1,6.1,2.46c-49,121.15-58.94,257.21-58.66,350,.31,100.67,12.38,173.59,12.5,174.32a3.28,3.28,0,0,1-2.69,3.79A3.51,3.51,0,0,1,1926.51,1152.67Z" transform="translate(0 -19.23)"/><circle class="cls-9" cx="1546.11" cy="345.76" r="146.32" transform="translate(208.36 1175.31) rotate(-45)"/><path class="cls-10" d="M1692.17,337.92H1399.79s-11.65,81.21,118.94,303.66a32,32,0,0,0,54.74.11C1704.05,419.22,1692.17,337.92,1692.17,337.92Z" transform="translate(0 -19.23)"/><path class="cls-11" d="M1546.05,661.84v.83h0a36.28,36.28,0,0,1-31-17.91c-76.34-130-104.31-212.25-114.33-258.26a147.5,147.5,0,0,1-5-31.59c-.88-10.88-.2-15.47-.12-16l.38-2.34c5.9-78.6,71.31-139.77,150.13-139.77,79.85,0,145.86,62,150.32,141.26a64.63,64.63,0,0,1,.25,8.07v.54a151,151,0,0,1-6,42.31c-10.37,46-38.51,127.37-113.55,255.21A35.43,35.43,0,0,1,1546.05,661.84ZM1403.78,344.5c0,2.19,0,5.33.42,10h0a137.53,137.53,0,0,0,4.76,29.82l0,.17c9.87,45.38,37.55,126.57,113.37,255.73a27.5,27.5,0,0,0,23.67,13.47v0a28.83,28.83,0,0,0,23.73-13.6c74.55-127,102.38-207.74,112.59-253.09l.08-.26c3.8-13,4.88-26.45,4.88-40l-.85-.6v-.05a54.06,54.06,0,0,1,.65-7.13l.4-.24c-4.15-74.78-66.25-133.36-141.63-133.36s-137.44,59.4-141.73,134.84l-.12,4.32Z" transform="translate(0 -19.23)"/><circle class="cls-12" cx="1546.58" cy="345.29" r="84.49" transform="translate(-33.7 443.76) rotate(-16.84)"/><path class="cls-6" d="M1546.58,434.5a89.21,89.21,0,1,1,89.21-89.21A89.31,89.31,0,0,1,1546.58,434.5Zm0-169a79.77,79.77,0,1,0,79.77,79.77A79.86,79.86,0,0,0,1546.58,265.52Z" transform="translate(0 -19.23)"/><path class="cls-6" d="M1466.44,257.32a1.44,1.44,0,0,1-1.08-.49,1.42,1.42,0,0,1,.15-2,131.15,131.15,0,0,1,85.39-31.61,1.42,1.42,0,1,1,0,2.83A128.3,128.3,0,0,0,1467.36,257,1.42,1.42,0,0,1,1466.44,257.32Z" transform="translate(0 -19.23)"/><path class="cls-6" d="M1421.19,355.76a1.41,1.41,0,0,1-1.41-1.42,130.84,130.84,0,0,1,19.61-69,1.42,1.42,0,1,1,2.41,1.49,128,128,0,0,0-19.19,67.53A1.42,1.42,0,0,1,1421.19,355.76Z" transform="translate(0 -19.23)"/><path class="cls-13" d="M535.73,1145.4h1195.6a5.55,5.55,0,0,0,5-4.16,5.45,5.45,0,0,0-2.23-6c-28.36-17.71-56.73-35.2-85.09-52.91a5,5,0,0,0-2.73-.55H620.81a4.88,4.88,0,0,0-2.73.45c-28.36,17.71-56.73,35.25-85.09,53a5.64,5.64,0,0,0-2.23,6.14A5.49,5.49,0,0,0,535.73,1145.4Z" transform="translate(0 -19.23)"/><path class="cls-14" d="M344.57,1266.09H1922.48c2.31,0,4.33-2.61,5-4.82a5.94,5.94,0,0,0-2.23-6.35c-28.36-17.71-56.73-34.7-85.1-52.41-.81-.51-1.76-.06-2.73-.06H429.66c-1,0-1.91-.73-2.73-.21-28.37,17.71-56.74,34.93-85.1,52.64-2,1.22-2.86,4.42-2.23,6.63S342.26,1266.09,344.57,1266.09Z" transform="translate(0 -19.23)"/><path class="cls-15" d="M2116.38,1373.74c-28.36-17.71-56.73-34.86-85.1-52.58-.82-.51-1.76-.22-2.73-.22H238.5c-1,0-1.91-.29-2.73.22-28.37,17.72-56.73,35.15-85.1,52.86a5.9,5.9,0,0,0-2.22,6.31c.63,2.21,2.66,4.25,5,4.25H2113.64c2.31,0,4.33-2.17,5-4.39A6.12,6.12,0,0,0,2116.38,1373.74Z" transform="translate(0 -19.23)"/><path class="cls-16" d="M767.44,472.22a.88.88,0,0,1-.51-.16.9.9,0,0,1-.23-1.25q1.26-1.85,2.42-3.73a.91.91,0,0,1,1.24-.3.9.9,0,0,1,.29,1.24c-.79,1.29-1.61,2.55-2.47,3.8A.88.88,0,0,1,767.44,472.22Z" transform="translate(0 -19.23)"/><path class="cls-16" d="M684.85,515.88c-2.78,0-5.59-.11-8.36-.34a.9.9,0,0,1-.83-1,.92.92,0,0,1,1-.83c2.72.23,5.48.34,8.2.34h.5a.9.9,0,0,1,0,1.8Zm9.27-.43a.9.9,0,0,1-.08-1.8c2.88-.26,5.78-.66,8.63-1.18a.9.9,0,0,1,.32,1.77c-2.9.53-5.86.93-8.79,1.21Zm-26.28-1-.15,0c-2.91-.5-5.82-1.13-8.66-1.87a.91.91,0,0,1-.65-1.1.9.9,0,0,1,1.1-.64c2.79.73,5.66,1.35,8.51,1.84a.9.9,0,0,1-.15,1.79Zm43.55-2.14a.9.9,0,0,1-.23-1.77c2.78-.77,5.57-1.67,8.28-2.69a.9.9,0,0,1,.63,1.69c-2.76,1-5.6,2-8.44,2.73A.67.67,0,0,1,711.39,512.3ZM650.86,510a1,1,0,0,1-.3-.05c-2.77-1-5.53-2.13-8.2-3.36a.9.9,0,0,1,.75-1.63c2.62,1.21,5.34,2.32,8.06,3.3a.9.9,0,0,1-.31,1.74Zm77-3.82a.92.92,0,0,1-.82-.51.9.9,0,0,1,.43-1.2c2.61-1.25,5.19-2.63,7.68-4.1a.9.9,0,0,1,.92,1.55c-2.54,1.5-5.17,2.9-7.83,4.17A.85.85,0,0,1,727.85,506.15Zm-92.92-3.54a.92.92,0,0,1-.45-.12c-2.55-1.46-5.07-3.06-7.48-4.75a.9.9,0,1,1,1-1.47c2.37,1.65,4.84,3.22,7.35,4.66a.9.9,0,0,1-.45,1.68Zm108-5.4a.9.9,0,0,1-.52-1.63c1.12-.8,2.23-1.63,3.32-2.49s2.39-1.9,3.53-2.88a.89.89,0,0,1,1.27.1.88.88,0,0,1-.1,1.26c-1.17,1-2.36,2-3.59,2.94s-2.24,1.71-3.39,2.53A.83.83,0,0,1,743,497.21Zm-122.42-4.64a.88.88,0,0,1-.58-.22c-2.24-1.88-4.44-3.9-6.53-6a.91.91,0,0,1,0-1.28.9.9,0,0,1,1.27,0c2,2.06,4.21,4,6.42,5.89a.89.89,0,0,1,.11,1.26A.88.88,0,0,1,620.54,492.57Zm135.76-6.78a.91.91,0,0,1-.63-.26.9.9,0,0,1,0-1.27c2-2.07,4-4.25,5.81-6.48a.91.91,0,0,1,1.27-.13.91.91,0,0,1,.13,1.27c-1.87,2.27-3.86,4.49-5.93,6.6A.89.89,0,0,1,756.3,485.79Zm-148.17-5.65a.92.92,0,0,1-.69-.32q-1.14-1.36-2.25-2.79c-1.08-1.38-2.14-2.81-3.14-4.24a.9.9,0,0,1,1.47-1c1,1.4,2,2.81,3.09,4.17.72.93,1.46,1.84,2.21,2.74a.89.89,0,0,1-.11,1.26A.85.85,0,0,1,608.13,480.14Zm-10.07-14.38a.9.9,0,0,1-.78-.45c-1.48-2.55-2.85-5.2-4.09-7.87a.89.89,0,0,1,.43-1.19.91.91,0,0,1,1.2.44c1.22,2.61,2.57,5.21,4,7.72a.9.9,0,0,1-.33,1.23A.92.92,0,0,1,598.06,465.76Zm-7.41-15.92a.91.91,0,0,1-.85-.6c-1-2.77-1.89-5.62-2.64-8.46a.9.9,0,0,1,1.74-.46c.74,2.79,1.61,5.59,2.6,8.31a.9.9,0,0,1-.54,1.15A.85.85,0,0,1,590.65,449.84Z" transform="translate(0 -19.23)"/><path class="cls-16" d="M586.14,432.75a.89.89,0,0,1-.88-.75c-.26-1.49-.48-3-.67-4.49a.9.9,0,0,1,1.79-.22c.18,1.47.4,2.94.65,4.41a.91.91,0,0,1-.73,1Z" transform="translate(0 -19.23)"/><path class="cls-16" d="M604.39,356.21a.89.89,0,0,1-.53-.18.91.91,0,0,1-.19-1.26q1.35-1.81,2.79-3.58a.9.9,0,0,1,1.27-.12.89.89,0,0,1,.12,1.26q-1.41,1.74-2.73,3.52A.9.9,0,0,1,604.39,356.21Z" transform="translate(0 -19.23)"/><path class="cls-16" d="M782.47,394.2a.91.91,0,0,1-.88-.71c-.66-3-1.47-6-2.41-8.93a.89.89,0,0,1,.58-1.13.9.9,0,0,1,1.13.58c1,3,1.78,6,2.46,9.1a.9.9,0,0,1-.69,1.07Zm-5.71-17.76a.9.9,0,0,1-.83-.54c-1.21-2.83-2.57-5.63-4-8.33a.9.9,0,1,1,1.58-.86c1.49,2.75,2.88,5.6,4.11,8.48a.89.89,0,0,1-.47,1.18A.84.84,0,0,1,776.76,376.44Zm-8.93-16.38a.91.91,0,0,1-.75-.4c-1.3-1.94-2.7-3.86-4.15-5.73-.45-.57-.9-1.14-1.36-1.7a.9.9,0,1,1,1.39-1.14c.47.57.93,1.15,1.39,1.74,1.47,1.89,2.9,3.85,4.23,5.83a.9.9,0,0,1-.75,1.4ZM613.39,345.71a.93.93,0,0,1-.63-.26.9.9,0,0,1,0-1.27c2.19-2.23,4.52-4.38,6.92-6.4a.9.9,0,0,1,1.27.11.89.89,0,0,1-.11,1.26c-2.36,2-4.65,4.11-6.8,6.29A.87.87,0,0,1,613.39,345.71ZM756,345.6a.91.91,0,0,1-.65-.27c-2.15-2.19-4.43-4.3-6.78-6.28a.9.9,0,1,1,1.16-1.38c2.39,2,4.71,4.17,6.91,6.4a.89.89,0,0,1-.64,1.53ZM627.66,333.68a.91.91,0,0,1-.74-.38.9.9,0,0,1,.23-1.25c2.56-1.79,5.25-3.48,8-5a.9.9,0,0,1,.89,1.57c-2.68,1.51-5.31,3.17-7.84,4.93A.86.86,0,0,1,627.66,333.68Zm114.12-.1a.91.91,0,0,1-.52-.16c-2.52-1.75-5.16-3.4-7.83-4.9a.9.9,0,1,1,.88-1.57c2.72,1.53,5.41,3.21,8,5a.9.9,0,0,1,.23,1.25A.91.91,0,0,1,741.78,333.58Zm-97.88-9.09a.9.9,0,0,1-.37-1.72c2.85-1.28,5.81-2.44,8.77-3.45a.9.9,0,1,1,.58,1.7c-2.91,1-5.81,2.13-8.61,3.39A1,1,0,0,1,643.9,324.49Zm81.62-.05a.78.78,0,0,1-.36-.08c-2.81-1.25-5.71-2.38-8.62-3.36a.9.9,0,0,1-.56-1.14.88.88,0,0,1,1.13-.56c3,1,5.92,2.15,8.78,3.42a.9.9,0,0,1-.37,1.72Zm-64-5.95a.9.9,0,0,1-.87-.69.88.88,0,0,1,.67-1.08c3-.73,6.15-1.31,9.26-1.75a.89.89,0,0,1,1,.76.9.9,0,0,1-.76,1c-3.06.43-6.12,1-9.1,1.71A.76.76,0,0,1,661.56,318.49Zm46.29,0a.76.76,0,0,1-.21,0c-3-.7-6.06-1.28-9.09-1.7a.91.91,0,0,1-.77-1,.9.9,0,0,1,1-.76c3.09.43,6.2,1,9.26,1.73a.9.9,0,0,1-.21,1.78Zm-18.47-2.59h0q-4.62-.21-9.26,0a.9.9,0,0,1-.08-1.8c3.14-.15,6.29-.15,9.42,0a.9.9,0,0,1,0,1.8Z" transform="translate(0 -19.23)"/><path class="cls-16" d="M784.51,408a.89.89,0,0,1-.89-.83c-.12-1.48-.27-2.95-.45-4.43a.9.9,0,0,1,1.79-.22c.18,1.5.33,3,.45,4.51a.9.9,0,0,1-.83,1Z" transform="translate(0 -19.23)"/><path class="cls-16" d="M664.59,448.65c3.75-3.14,18-27,40.75,0,2.47,1.29,8.84-2.32,8-4.84-26.65-38.86-59.84-2.39-56.58,1.61S660.23,452.3,664.59,448.65Z" transform="translate(0 -19.23)"/><path class="cls-16" d="M729.44,432.46c5-.58,9.64-4,8.24-8.32s-48.8-59.69-101.63,2.77a3.77,3.77,0,0,0,.46,5.33c2.41,2,4.46,3.35,7.12,3C692,380.44,724.47,433.05,729.44,432.46Z" transform="translate(0 -19.23)"/><path class="cls-16" d="M754.13,415.91c3.53.71,10.75-2,8.88-7.75-83.48-90.84-157.83,4.37-155.11,8.21s8.26,4,10.49,2.69C684.86,333.8,750.6,415.2,754.13,415.91Z" transform="translate(0 -19.23)"/><circle class="cls-16" cx="684.61" cy="462.52" r="11.06" transform="translate(-51.38 67.88) rotate(-7.02)"/><circle class="cls-17" cx="198.34" cy="462.23" r="58.44" transform="translate(-296.74 354.13) rotate(-56.6)"/><circle class="cls-18" cx="198.34" cy="462.23" r="56.49" transform="translate(-161.79 91.86) rotate(-22.5)"/><path class="cls-19" d="M151.75,441a2.14,2.14,0,0,1-1-.23,2.19,2.19,0,0,1-1-3,54.1,54.1,0,0,1,48.54-29.89,55.29,55.29,0,0,1,9.8.88,2.2,2.2,0,0,1-.79,4.32,50,50,0,0,0-53.64,26.67A2.19,2.19,0,0,1,151.75,441Z" transform="translate(0 -19.23)"/><circle class="cls-19" cx="199.57" cy="463.46" r="47.81" transform="translate(-162.17 92.42) rotate(-22.5)"/><path class="cls-20" d="M194.88,499v-5.2a42.42,42.42,0,0,1-14.6-3.17,3,3,0,0,1-1.66-3.55l1.32-4.85a3,3,0,0,1,4.12-2,35.27,35.27,0,0,0,13.47,2.84c5.23,0,9.12-1.77,9.12-5.4,0-3.28-3-5.23-10.27-7.17-10.36-2.84-17.79-7.35-17.79-16.47,0-8.23,6-14.52,16.46-16.2v-5.2a3,3,0,0,1,3-3h3.06a3,3,0,0,1,3,3v4.67a39,39,0,0,1,11.57,2.07,3,3,0,0,1,1.89,3.65l-1.22,4.48a3,3,0,0,1-4,2,31.54,31.54,0,0,0-11.35-2.06c-6.19,0-8,2.57-8,4.87,0,2.83,3.71,4.78,11.77,7.26,11.51,3.45,16.29,8.23,16.29,16.82,0,7.88-5.84,15-17.17,16.73V499a3,3,0,0,1-3,3h-3.05A3,3,0,0,1,194.88,499Z" transform="translate(0 -19.23)"/><circle class="cls-21" cx="372.97" cy="358.9" r="101.73" transform="translate(-144.54 349.62) rotate(-45)"/><circle class="cls-22" cx="372.97" cy="358.9" r="98.35" transform="translate(-144.54 349.62) rotate(-45)"/><path class="cls-19" d="M291.87,320.24a2.14,2.14,0,0,1-1-.23,2.19,2.19,0,0,1-1-2.95A92.57,92.57,0,0,1,373,265.92a94,94,0,0,1,16.77,1.51,2.2,2.2,0,1,1-.79,4.32A88.73,88.73,0,0,0,293.83,319,2.18,2.18,0,0,1,291.87,320.24Z" transform="translate(0 -19.23)"/><circle class="cls-19" cx="375.11" cy="341.81" r="83.24"/><path class="cls-23" d="M366.94,422.92v-9.05a74,74,0,0,1-25.41-5.51,5.25,5.25,0,0,1-2.89-6.19l2.3-8.44a5.28,5.28,0,0,1,7.17-3.45,61.27,61.27,0,0,0,23.46,4.94c9.09,0,15.87-3.09,15.87-9.4,0-5.71-5.24-9.1-17.88-12.49-18-4.93-31-12.79-31-28.66,0-14.34,10.48-25.28,28.66-28.2v-9.06a5.28,5.28,0,0,1,5.28-5.28h5.32a5.28,5.28,0,0,1,5.28,5.28v8.13a67.17,67.17,0,0,1,20.14,3.62,5.24,5.24,0,0,1,3.28,6.33l-2.12,7.81a5.26,5.26,0,0,1-6.94,3.55,54.91,54.91,0,0,0-19.76-3.59c-10.79,0-13.87,4.47-13.87,8.48,0,4.93,6.48,8.32,20.5,12.64,20,6,28.36,14.33,28.36,29.28,0,13.71-10.18,26-29.9,29.13v10.13a5.27,5.27,0,0,1-5.28,5.28h-5.32A5.28,5.28,0,0,1,366.94,422.92Z" transform="translate(0 -19.23)"/><circle class="cls-24" cx="352.85" cy="578.29" r="83" transform="translate(-305.57 399.65) rotate(-45)"/><circle class="cls-25" cx="352.85" cy="578.29" r="80.24" transform="translate(-305.57 399.65) rotate(-45)"/><path class="cls-19" d="M286.68,546.7a1.69,1.69,0,0,1-.78-.19,1.73,1.73,0,0,1-.77-2.34,75.94,75.94,0,0,1,81.39-40.46,1.74,1.74,0,0,1-.62,3.42,72.89,72.89,0,0,0-13-1.17,72,72,0,0,0-64.62,39.78A1.72,1.72,0,0,1,286.68,546.7Z" transform="translate(0 -19.23)"/><circle class="cls-19" cx="354.6" cy="580.04" r="67.92" transform="translate(-252.71 866.35) rotate(-85.27)"/><path class="cls-26" d="M347.93,630.53v-7.39a60.25,60.25,0,0,1-20.73-4.5,4.27,4.27,0,0,1-2.36-5l1.87-6.88a4.32,4.32,0,0,1,5.85-2.82,50.07,50.07,0,0,0,19.15,4c7.41,0,13-2.51,13-7.67,0-4.65-4.28-7.42-14.59-10.18-14.71-4-25.27-10.44-25.27-23.39,0-11.7,8.55-20.62,23.38-23v-7.39a4.31,4.31,0,0,1,4.31-4.31h4.34a4.31,4.31,0,0,1,4.31,4.31v6.63a55.35,55.35,0,0,1,16.43,3,4.29,4.29,0,0,1,2.68,5.17l-1.73,6.37a4.3,4.3,0,0,1-5.67,2.9,44.66,44.66,0,0,0-16.11-2.93c-8.81,0-11.32,3.65-11.32,6.92,0,4,5.28,6.79,16.72,10.31,16.35,4.9,23.14,11.69,23.14,23.89,0,11.19-8.3,21.25-24.4,23.77v8.27a4.29,4.29,0,0,1-4.3,4.3h-4.34A4.3,4.3,0,0,1,347.93,630.53Z" transform="translate(0 -19.23)"/><path class="cls-6" d="M565.24,203.55l-7.06,5.22a2.19,2.19,0,1,0,2.61,3.52l7.05-5.21a2.19,2.19,0,1,0-2.6-3.53Z" transform="translate(0 -19.23)"/><path class="cls-6" d="M545.85,217.93l-7,5.26a2.18,2.18,0,1,0,2.61,3.49l7-5.25a2.18,2.18,0,1,0-2.61-3.5Z" transform="translate(0 -19.23)"/><path class="cls-6" d="M526.55,232.45l-7,5.32a2.17,2.17,0,0,0,2.63,3.45l7-5.3a2.17,2.17,0,0,0-2.62-3.47Z" transform="translate(0 -19.23)"/><path class="cls-6" d="M507.39,247.13l-6.94,5.39a2.16,2.16,0,1,0,2.66,3.41l6.93-5.37a2.17,2.17,0,0,0-2.64-3.44Z" transform="translate(0 -19.23)"/><path class="cls-6" d="M488.36,262l-6.87,5.47a2.15,2.15,0,1,0,2.68,3.36L491,265.4a2.16,2.16,0,1,0-2.67-3.39Z" transform="translate(0 -19.23)"/><path class="cls-6" d="M469.52,277.14l-6.81,5.56a2.14,2.14,0,1,0,2.72,3.31l6.79-5.54a2.14,2.14,0,0,0-2.69-3.34Z" transform="translate(0 -19.23)"/><path class="cls-6" d="M450.87,292.52l-6.72,5.66a2.13,2.13,0,1,0,2.75,3.26h0l6.7-5.64h0a2.13,2.13,0,1,0-2.75-3.26Z" transform="translate(0 -19.23)"/><path class="cls-6" d="M432.46,308.18,425.84,314a2.12,2.12,0,1,0,2.78,3.2h0l6.62-5.75h0a2.13,2.13,0,1,0-2.79-3.21Z" transform="translate(0 -19.23)"/><path class="cls-6" d="M414.32,324.16l-6.52,5.89a2.11,2.11,0,0,0,2.83,3.14h0l6.51-5.87h0a2.12,2.12,0,1,0-2.84-3.14Z" transform="translate(0 -19.23)"/><path class="cls-6" d="M396.48,340.48l-6.4,6a2.1,2.1,0,0,0,2.88,3.06h0l6.39-6h0a2.11,2.11,0,0,0-2.89-3.08Z" transform="translate(0 -19.23)"/><path class="cls-6" d="M379,357.16l-6.27,6.17a2.09,2.09,0,1,0,2.93,3h0l6.25-6.13h0a2.1,2.1,0,1,0-2.94-3Z" transform="translate(0 -19.23)"/><path class="cls-6" d="M361.86,374.25l-6.12,6.32a2.08,2.08,0,0,0,3,2.9l0,0,6.09-6.28h0a2.09,2.09,0,1,0-3-2.91Z" transform="translate(0 -19.23)"/><path class="cls-6" d="M345.17,391.76l-5.95,6.48a2.07,2.07,0,1,0,3,2.81l0,0,5.93-6.44v0a2.08,2.08,0,0,0-3.06-2.81Z" transform="translate(0 -19.23)"/><path class="cls-6" d="M329,409.73l-5.77,6.65a2.07,2.07,0,0,0,3.13,2.7h0l5.74-6.61v0a2.07,2.07,0,1,0-3.12-2.71Z" transform="translate(0 -19.23)"/><path class="cls-6" d="M313.31,428.18,307.76,435A2.05,2.05,0,1,0,311,437.6h0l5.52-6.8h0a2.06,2.06,0,1,0-3.19-2.6Z" transform="translate(0 -19.23)"/><path class="cls-6" d="M298.26,447.14l-5.31,7a2,2,0,0,0,3.27,2.47v0l5.28-7,0,0a2,2,0,1,0-3.27-2.47Z" transform="translate(0 -19.23)"/><path class="cls-6" d="M283.9,466.64l-5,7.23a2,2,0,0,0,3.34,2.33l0,0,5-7.17,0,0a2,2,0,0,0-3.35-2.33Z" transform="translate(0 -19.23)"/><path class="cls-6" d="M270.33,486.7l-4.73,7.43a2,2,0,1,0,3.42,2.18l0,0,4.69-7.37,0,0a2,2,0,0,0-3.42-2.18Z" transform="translate(0 -19.23)"/><path class="cls-6" d="M257.62,507.33,253.24,515a2,2,0,1,0,3.5,2l0,0,4.35-7.58,0,0a2,2,0,1,0-3.5-2Z" transform="translate(0 -19.23)"/><path class="cls-6" d="M245.91,528.54l-4,7.86a2,2,0,0,0,3.58,1.81l0,0,4-7.78,0,0a2,2,0,1,0-3.58-1.82Z" transform="translate(0 -19.23)"/><path class="cls-6" d="M235.29,550.33l-3.56,8.06a2,2,0,0,0,3.65,1.61l0,0,3.53-8,0,0a2,2,0,0,0-3.66-1.62Z" transform="translate(0 -19.23)"/><path class="cls-6" d="M225.9,572.67l-3.09,8.25a2,2,0,1,0,3.72,1.39l0,0,3.06-8.17,0,0a2,2,0,0,0-3.73-1.4Z" transform="translate(0 -19.23)"/><path class="cls-6" d="M217.85,595.54,215.28,604a2,2,0,0,0,3.78,1.15v0l2.55-8.34,0,0a2,2,0,0,0-3.79-1.15Z" transform="translate(0 -19.23)"/><path class="cls-6" d="M211.26,618.88l-2,8.59a2,2,0,0,0,3.83.9v0l2-8.5v0a2,2,0,1,0-3.84-.9Z" transform="translate(0 -19.23)"/><path class="cls-6" d="M206.25,642.62l-1.42,8.71a2,2,0,0,0,3.87.63v-.05l1.41-8.61v0a2,2,0,1,0-3.87-.63Z" transform="translate(0 -19.23)"/><path class="cls-6" d="M202.9,666.66l-.79,8.79a1.95,1.95,0,1,0,3.88.35v0l.79-8.69v0a1.95,1.95,0,1,0-3.88-.35Z" transform="translate(0 -19.23)"/><path class="cls-6" d="M201.28,690.88l-.16,8.82a1.94,1.94,0,1,0,3.87.07v0l.17-8.72v0a1.94,1.94,0,1,0-3.88-.07Z" transform="translate(0 -19.23)"/><path class="cls-6" d="M201.4,715.15l.48,8.8a1.93,1.93,0,0,0,3.85-.2v0l-.47-8.71v0a1.93,1.93,0,1,0-3.86.21Z" transform="translate(0 -19.23)"/><path class="cls-6" d="M203.27,739.33l1.11,8.75a1.92,1.92,0,1,0,3.8-.48v0l-1.09-8.66v0a1.93,1.93,0,0,0-3.82.48Z" transform="translate(0 -19.23)"/><path class="cls-6" d="M206.84,763.33l1.7,8.65a1.91,1.91,0,1,0,3.74-.73v0l-1.68-8.56v0a1.91,1.91,0,1,0-3.75.74Z" transform="translate(0 -19.23)"/><path class="cls-6" d="M212,787l2.28,8.52a1.9,1.9,0,1,0,3.67-1v-.05l-2.26-8.42v-.05a1.9,1.9,0,1,0-3.68,1Z" transform="translate(0 -19.23)"/><path class="cls-6" d="M218.85,810.32l2.89,8.34a1.89,1.89,0,0,0,3.57-1.24l0,0-2.85-8.24v0a1.89,1.89,0,0,0-3.58,1.24Z" transform="translate(0 -19.23)"/><path class="cls-6" d="M227.31,833.06l3.47,8.11a1.88,1.88,0,0,0,3.46-1.48l0,0-3.43-8,0,0a1.88,1.88,0,1,0-3.46,1.48Z" transform="translate(0 -19.23)"/><path class="cls-6" d="M237.33,855.14l4,7.86a1.87,1.87,0,0,0,3.33-1.7l0,0-4-7.78,0,0a1.87,1.87,0,0,0-3.34,1.7Z" transform="translate(0 -19.23)"/><path class="cls-6" d="M248.81,876.5l4.52,7.57a1.86,1.86,0,1,0,3.19-1.9l0,0-4.46-7.5,0,0a1.86,1.86,0,1,0-3.2,1.91Z" transform="translate(0 -19.23)"/><path class="cls-6" d="M261.64,897.07l5,7.27a1.85,1.85,0,1,0,3.05-2.09l0,0L264.73,895l0,0a1.85,1.85,0,0,0-3.06,2.09Z" transform="translate(0 -19.23)"/><path class="cls-6" d="M275.71,916.8l5.39,7a1.86,1.86,0,0,0,2.59.33,1.83,1.83,0,0,0,.32-2.58l0,0-5.34-6.91,0,0a1.84,1.84,0,1,0-2.91,2.25Z" transform="translate(0 -19.23)"/><path class="cls-6" d="M290.89,935.69l5.78,6.65a1.83,1.83,0,0,0,2.58.19,1.85,1.85,0,0,0,.18-2.59l0,0-5.72-6.61,0,0a1.83,1.83,0,1,0-2.77,2.4Z" transform="translate(0 -19.23)"/><path class="cls-6" d="M307.08,953.71l6.12,6.35a1.82,1.82,0,0,0,2.62-2.53l0,0-6.07-6.29,0,0a1.82,1.82,0,0,0-2.63,2.53Z" transform="translate(0 -19.23)"/><path class="cls-6" d="M324.17,970.88l6.42,6a1.81,1.81,0,1,0,2.48-2.63l0,0-6.37-6,0,0a1.81,1.81,0,0,0-2.49,2.64Z" transform="translate(0 -19.23)"/><path class="cls-6" d="M342.07,987.19l6.69,5.73a1.8,1.8,0,1,0,2.34-2.74l0,0-6.64-5.69,0,0a1.8,1.8,0,0,0-2.35,2.74Z" transform="translate(0 -19.23)"/><path class="cls-6" d="M360.68,1002.68l6.93,5.43a1.8,1.8,0,0,0,2.21-2.83h0l-6.88-5.4,0,0a1.8,1.8,0,0,0-2.22,2.83Z" transform="translate(0 -19.23)"/><path class="cls-6" d="M379.94,1017.35l7.14,5.14a1.79,1.79,0,0,0,2.49-.41,1.77,1.77,0,0,0-.41-2.48l0,0-7.1-5.11,0,0a1.78,1.78,0,1,0-2.08,2.9Z" transform="translate(0 -19.23)"/><path class="cls-6" d="M399.76,1031.23l7.34,4.86a1.78,1.78,0,0,0,2-3h0l-7.29-4.83,0,0a1.78,1.78,0,1,0-2,3Z" transform="translate(0 -19.23)"/><path class="cls-6" d="M420.1,1044.35l7.52,4.58a1.76,1.76,0,0,0,1.83-3h0l-7.47-4.56,0,0a1.77,1.77,0,0,0-1.84,3Z" transform="translate(0 -19.23)"/><path class="cls-6" d="M440.9,1056.71l7.67,4.32a1.76,1.76,0,0,0,1.72-3.06h0l-7.62-4.31h0a1.76,1.76,0,0,0-1.73,3.06Z" transform="translate(0 -19.23)"/><path class="cls-6" d="M462.12,1068.35l7.8,4.06a1.75,1.75,0,0,0,1.61-3.1h0l-7.76-4h0a1.75,1.75,0,0,0-1.62,3.1Z" transform="translate(0 -19.23)"/><path class="cls-6" d="M483.7,1079.28l7.94,3.8a1.73,1.73,0,1,0,1.49-3.13h0l-7.9-3.78h0a1.74,1.74,0,0,0-1.5,3.13Z" transform="translate(0 -19.23)"/><path class="cls-6" d="M505.62,1089.51l8,3.55a1.73,1.73,0,0,0,1.39-3.16h0l-8-3.54h0a1.73,1.73,0,1,0-1.4,3.16Z" transform="translate(0 -19.23)"/><path class="cls-6" d="M527.85,1099.05l8.15,3.3a1.71,1.71,0,1,0,1.29-3.17h0l-8.11-3.29h0a1.72,1.72,0,1,0-1.29,3.18Z" transform="translate(0 -19.23)"/><path class="cls-6" d="M550.36,1107.92l8.25,3a1.7,1.7,0,1,0,1.18-3.19h0l-8.21-3h0a1.71,1.71,0,1,0-1.19,3.2Z" transform="translate(0 -19.23)"/><path class="cls-6" d="M573.12,1116.11l8.33,2.81a1.7,1.7,0,0,0,1.09-3.22h0l-8.3-2.81h0a1.7,1.7,0,1,0-1.08,3.22Z" transform="translate(0 -19.23)"/><path class="cls-6" d="M596.11,1123.62l8.41,2.56a1.68,1.68,0,1,0,1-3.22h0l-8.38-2.56h0a1.69,1.69,0,1,0-1,3.23Z" transform="translate(0 -19.23)"/><path class="cls-6" d="M619.31,1130.45l8.49,2.31a1.67,1.67,0,1,0,.88-3.23h0l-8.45-2.31h0a1.68,1.68,0,0,0-.89,3.24Z" transform="translate(0 -19.23)"/><path class="cls-6" d="M642.71,1136.58l8.56,2.06a1.67,1.67,0,0,0,.77-3.24h0l-8.52-2.06h0a1.67,1.67,0,1,0-.78,3.24Z" transform="translate(0 -19.23)"/><path class="cls-6" d="M666.29,1142l8.61,1.79a1.65,1.65,0,1,0,.67-3.24h0l-8.58-1.79h0a1.67,1.67,0,0,0-2,1.29,1.65,1.65,0,0,0,1.29,2Z" transform="translate(0 -19.23)"/><path class="cls-6" d="M690,1146.68l8.67,1.51a1.64,1.64,0,1,0,.56-3.24h0l-8.63-1.51h0a1.65,1.65,0,1,0-.57,3.25Z" transform="translate(0 -19.23)"/><path class="cls-6" d="M713.89,1150.59l8.7,1.26a1.64,1.64,0,0,0,.47-3.24h0l-8.67-1.27h0a1.64,1.64,0,0,0-.47,3.25Z" transform="translate(0 -19.23)"/><path class="cls-6" d="M737.84,1153.89l8.72,1.06a1.62,1.62,0,0,0,.4-3.22h0l-8.7-1.07h0a1.63,1.63,0,0,0-.39,3.24Z" transform="translate(0 -19.23)"/><path class="cls-6" d="M761.85,1156.65l8.75.86a1.61,1.61,0,1,0,.32-3.21h0l-8.72-.87h0a1.62,1.62,0,0,0-.32,3.23Z" transform="translate(0 -19.23)"/><path class="cls-6" d="M785.93,1158.85l8.76.66a1.61,1.61,0,1,0,.24-3.21h0l-8.74-.66h0a1.61,1.61,0,1,0-.24,3.21Z" transform="translate(0 -19.23)"/><path class="cls-6" d="M810.05,1160.47l8.78.44a1.6,1.6,0,0,0,.16-3.19h0l-8.75-.45h0a1.6,1.6,0,1,0-.16,3.2Z" transform="translate(0 -19.23)"/><path class="cls-6" d="M834.21,1161.5l8.78.22a1.59,1.59,0,1,0,.08-3.17h0l-8.75-.23h0a1.59,1.59,0,0,0-.08,3.18Z" transform="translate(0 -19.23)"/><path class="cls-6" d="M858.38,1161.91h8.79a1.58,1.58,0,1,0,0-3.15h-8.79a1.58,1.58,0,1,0,0,3.16Z" transform="translate(0 -19.23)"/><path class="cls-6" d="M882.56,1161.7l8.78-.23a1.57,1.57,0,1,0-.08-3.14h0l-8.76.23h0a1.57,1.57,0,0,0,.08,3.14Z" transform="translate(0 -19.23)"/><path class="cls-6" d="M906.72,1160.85l8.78-.48a1.55,1.55,0,0,0,1.47-1.63,1.57,1.57,0,0,0-1.64-1.48h0l-8.75.47h0a1.56,1.56,0,1,0,.17,3.12Z" transform="translate(0 -19.23)"/><path class="cls-6" d="M930.85,1159.34l8.76-.72a1.55,1.55,0,1,0-.25-3.08h0l-8.73.7h0a1.56,1.56,0,1,0,.25,3.1Z" transform="translate(0 -19.23)"/><path class="cls-6" d="M954.93,1157.16l8.74-1a1.54,1.54,0,1,0-.34-3.06h0l-8.71.95h0a1.54,1.54,0,1,0,.33,3.07Z" transform="translate(0 -19.23)"/><path class="cls-6" d="M978.93,1154.3l8.71-1.2a1.53,1.53,0,1,0-.42-3h0l-8.68,1.2h0a1.53,1.53,0,0,0,.42,3Z" transform="translate(0 -19.23)"/><path class="cls-6" d="M1002.85,1150.76l8.67-1.46a1.52,1.52,0,1,0-.5-3h0l-8.64,1.45h0a1.52,1.52,0,1,0,.5,3Z" transform="translate(0 -19.23)"/><path class="cls-6" d="M1026.65,1146.53l8.63-1.71a1.51,1.51,0,0,0-.59-3h0l-8.59,1.7h0a1.51,1.51,0,1,0,.58,3Z" transform="translate(0 -19.23)"/><path class="cls-6" d="M1050.32,1141.6l8.57-2a1.5,1.5,0,1,0-.67-2.92h0l-8.54,2h0a1.5,1.5,0,0,0,.67,2.93Z" transform="translate(0 -19.23)"/><path class="cls-6" d="M1073.84,1136l8.5-2.22a1.49,1.49,0,1,0-.75-2.88h0l-8.48,2.21h0a1.49,1.49,0,1,0,.76,2.89Z" transform="translate(0 -19.23)"/><path class="cls-6" d="M1097.17,1129.65l8.44-2.47a1.48,1.48,0,1,0-.83-2.84h0l-8.41,2.46h0a1.48,1.48,0,1,0,.83,2.85Z" transform="translate(0 -19.23)"/><path class="cls-6" d="M1120.31,1122.63l8.36-2.72a1.47,1.47,0,1,0-.91-2.79h0l-8.33,2.71h0a1.47,1.47,0,1,0,.91,2.8Z" transform="translate(0 -19.23)"/><path class="cls-6" d="M1143.23,1114.93l8.28-3a1.46,1.46,0,0,0-1-2.75h0l-8.25,3h0a1.47,1.47,0,0,0,1,2.76Z" transform="translate(0 -19.23)"/><path class="cls-6" d="M1165.91,1106.55l8.19-3.21a1.45,1.45,0,1,0-1.07-2.7h0l-8.16,3.2h0a1.45,1.45,0,0,0,1.06,2.71Z" transform="translate(0 -19.23)"/><path class="cls-6" d="M1188.35,1097.58l8.11-3.35a1.44,1.44,0,1,0-1.1-2.66l-8.1,3.33a1.44,1.44,0,1,0,1.08,2.68Z" transform="translate(0 -19.23)"/><path class="cls-6" d="M1210.62,1088.28l8.08-3.45a1.43,1.43,0,0,0-1.13-2.63l-8.07,3.44a1.43,1.43,0,0,0,1.12,2.64Z" transform="translate(0 -19.23)"/><path class="cls-6" d="M1232.8,1078.72l8-3.52a1.42,1.42,0,0,0-1.14-2.61l-8,3.52a1.42,1.42,0,0,0,1.13,2.61Z" transform="translate(0 -19.23)"/><path class="cls-6" d="M1254.89,1069l8-3.58a1.41,1.41,0,1,0-1.15-2.57l-8,3.57a1.41,1.41,0,0,0-.72,1.86,1.42,1.42,0,0,0,1.87.73Z" transform="translate(0 -19.23)"/><path class="cls-6" d="M1276.93,1059.1l8-3.61a1.4,1.4,0,0,0-1.15-2.56l-8,3.6a1.41,1.41,0,1,0,1.15,2.57Z" transform="translate(0 -19.23)"/><path class="cls-6" d="M1298.94,1049.16l8-3.62a1.39,1.39,0,1,0-1.15-2.54l-8,3.61a1.4,1.4,0,0,0,1.15,2.55Z" transform="translate(0 -19.23)"/><path class="cls-6" d="M1320.94,1039.22l8-3.61a1.38,1.38,0,0,0-1.14-2.52l-8,3.6a1.38,1.38,0,0,0-.7,1.83,1.4,1.4,0,0,0,1.84.7Z" transform="translate(0 -19.23)"/><path class="cls-6" d="M1343,1029.33l8-3.56a1.37,1.37,0,1,0-1.11-2.51l-8,3.56a1.38,1.38,0,0,0,1.12,2.52Z" transform="translate(0 -19.23)"/><path class="cls-6" d="M1365.05,1019.57l8-3.5a1.36,1.36,0,1,0-1.09-2.5l-8,3.5a1.37,1.37,0,1,0,1.09,2.51Z" transform="translate(0 -19.23)"/><path class="cls-6" d="M1387.2,1010l8.08-3.42a1.35,1.35,0,0,0-1-2.49l-8.09,3.41a1.36,1.36,0,0,0,1,2.51Z" transform="translate(0 -19.23)"/><path class="cls-6" d="M1409.44,1000.68l8.12-3.31a1.34,1.34,0,1,0-1-2.49l-8.13,3.31a1.35,1.35,0,1,0,1,2.5Z" transform="translate(0 -19.23)"/><path class="cls-6" d="M1431.8,991.68l8.17-3.18a1.33,1.33,0,1,0-1-2.49l-8.19,3.18a1.34,1.34,0,0,0,1,2.5Z" transform="translate(0 -19.23)"/><path class="cls-6" d="M1454.31,983.06l8.22-3a1.32,1.32,0,1,0-.9-2.49l-8.24,3a1.33,1.33,0,0,0,.91,2.49Z" transform="translate(0 -19.23)"/><path class="cls-6" d="M1477,974.88l8.28-2.85h0a1.31,1.31,0,1,0-.85-2.48l-8.31,2.85a1.32,1.32,0,0,0,.86,2.49Z" transform="translate(0 -19.23)"/><path class="cls-6" d="M1499.82,967.21l8.35-2.65h0a1.31,1.31,0,0,0-.79-2.49l-8.37,2.65a1.31,1.31,0,1,0,.78,2.5h0Z" transform="translate(0 -19.23)"/><path class="cls-6" d="M1522.85,960.12l8.42-2.4h0a1.29,1.29,0,0,0-.71-2.49l-8.46,2.4a1.3,1.3,0,0,0-.9,1.6,1.31,1.31,0,0,0,1.61.9h0Z" transform="translate(0 -19.23)"/><path class="cls-6" d="M1546.09,953.84l8.52-2h0a1.29,1.29,0,0,0-.6-2.5l-8.55,2a1.29,1.29,0,1,0,.59,2.51h0Z" transform="translate(0 -19.23)"/><path class="cls-6" d="M1569.59,948.55l8.59-1.66h0a1.27,1.27,0,1,0-.48-2.5l-8.64,1.67a1.28,1.28,0,0,0,.49,2.51h0Z" transform="translate(0 -19.23)"/><path class="cls-6" d="M1593.29,944.3,1602,943h0a1.26,1.26,0,1,0-.37-2.5l-8.7,1.28a1.27,1.27,0,1,0,.37,2.51h0Z" transform="translate(0 -19.23)"/><polygon class="cls-5" points="604.5 136.56 608.81 168.22 628.39 151.69 604.5 136.56"/><path class="cls-6" d="M744.37,118.25l-75.28,86.62a8.08,8.08,0,0,1-11.63.59L573.34,126.6a3.24,3.24,0,0,1,2.16-5.6Z" transform="translate(0 -19.23)"/><polygon class="cls-5" points="604.51 136.56 744.37 99.02 618.04 149.33 618.87 158.16 604.51 136.56"/><polygon class="cls-5" points="626.13 156.84 608.81 168.22 618.04 149.33 626.13 156.84"/><rect class="cls-27" x="1155.47" y="1080.09" width="127.27" height="243.56" rx="51.93"/><rect class="cls-28" x="1868.6" y="1080.09" width="127.27" height="243.56" rx="51.93"/><path class="cls-29" d="M1222.31,891.89c-1.55-.35-3.21-1.73-3.21-3.32V877.9c0-10.29-5.24-19.69-14.43-24.32a42.7,42.7,0,0,0-37.52-.57l-22.52,10.33a30.34,30.34,0,0,0-17.69,27.14v8.13c0,15,11.62,27.66,26.46,29.68l91.21,12.38,11.11-41.42Z" transform="translate(0 -19.23)"/><path class="cls-30" d="M1930.53,891.89c1.56-.35,1.7-1.73,1.7-3.32V877.9c0-10.29,6.76-19.69,15.94-24.32a44.36,44.36,0,0,1,38.28-.57l21.39,10.33c10.54,4.93,16.55,15.5,16.55,27.14v8.13c0,15-10.1,27.66-24.94,29.68L1909,940.67l-11.49-41.42Z" transform="translate(0 -19.23)"/><path class="cls-31" d="M1997.93,983.46c-13.17-44.44-81.19-84.93-81.19-84.93s-57-174.43-118.49-174.43h-443c-61.44,0-118.49,174.43-118.49,174.43s-68,40.79-81.19,85.23c-9.62,32.49,11.24,157.75,23.16,222.22,4.21,22.74,25.66,40.36,50.71,40.36h694.59c25,0,46.5-17.77,50.71-40.51C1986.68,1141.35,2007.55,1015.94,1997.93,983.46Z" transform="translate(0 -19.23)"/><path class="cls-32" d="M1989.38,1171.33c-3.83-4.38-9.67-6.18-15.85-6.18H1180c-6.14,0-11.94,1.77-15.77,6.1a16.18,16.18,0,0,0-3.91,15l13,52c2.09,8.3,10.26,14.61,19.69,14.61H1959.9c9.34,0,17.47-6.4,19.64-14.61l13.63-51.52A16.74,16.74,0,0,0,1989.38,1171.33Z" transform="translate(0 -19.23)"/><path class="cls-33" d="M1362.44,1090.06s-19.74-59.25-44.61-64.36-130.2-27.07-132.39-8.78-23.41,81.19,39.5,87S1372.58,1114.62,1362.44,1090.06Z" transform="translate(0 -19.23)"/><path class="cls-34" d="M1791.09,1090.06s19.74-59.25,44.61-64.36,130.19-27.07,132.39-8.78,23.4,81.19-39.5,87S1781,1114.62,1791.09,1090.06Z" transform="translate(0 -19.23)"/><path class="cls-35" d="M1776.9,1040.13c-2-3.15-5.54-4.44-9.29-4.44H1385.92c-3.89,0-7.49,1.43-9.49,4.76a10.5,10.5,0,0,0-.3,10.6l21.48,41c8,15,23.58,24.88,40.59,24.88h280.45c18.14,0,34.58-11.28,42-27.85l17.11-38.36A11,11,0,0,0,1776.9,1040.13Z" transform="translate(0 -19.23)"/><path class="cls-36" d="M1880.84,912.73c-2.48,3.77-6.7,6.66-11.24,6.66H1283.91c-4.58,0-8.86-2.95-11.32-6.84a14,14,0,0,1-.79-13.23c13.3-28,38.25-80,52.22-109.07a27,27,0,0,1,2.13-3.24c6.76-10.73,18.63-16.83,31.51-16.83h442.91c13,0,24.93,6.15,31.66,17a35.5,35.5,0,0,1,2.53,4.5l47.13,108.22A13.67,13.67,0,0,1,1880.84,912.73Z" transform="translate(0 -19.23)"/><path class="cls-37" d="M1832.23,787.15c-31,6.12-122.19,21.07-259.71,21.07-138.65,0-220-15.1-246.37-21.14,6.76-10.73,18.63-16.9,31.51-16.9h442.91C1813.58,770.18,1825.5,776.33,1832.23,787.15Z" transform="translate(0 -19.23)"/><path class="cls-38" d="M1353,1009.47a2.18,2.18,0,0,1-1.51-.6L1275.58,937a2.2,2.2,0,0,1,3-3.19l75.91,71.84a2.19,2.19,0,0,1,.09,3.1A2.17,2.17,0,0,1,1353,1009.47Z" transform="translate(0 -19.23)"/><path class="cls-39" d="M1794.93,1009.47a2.17,2.17,0,0,1-1.59-.69,2.19,2.19,0,0,1,.09-3.1l75.91-71.84a2.2,2.2,0,0,1,3,3.19l-75.92,71.84A2.18,2.18,0,0,1,1794.93,1009.47Z" transform="translate(0 -19.23)"/><path class="cls-40" d="M491.37,1333.56a5.36,5.36,0,0,0-.14-1.31c-6.54-25.92-39-42.07-39-42.07l-12.86,1c-7.39,22.85-6.44,36.86-5.26,43.1,0,.18.09.34.14.51A304.76,304.76,0,0,0,491.37,1333.56Z" transform="translate(0 -19.23)"/><path class="cls-41" d="M434.26,1334.8a5.55,5.55,0,0,0,4.08,4.12c15.09,3.18,39.07.62,49.14-.69a4.7,4.7,0,0,0,3.89-4.67A304.76,304.76,0,0,1,434.26,1334.8Z" transform="translate(0 -19.23)"/><path class="cls-42" d="M434.21,1272l5.45,26.22a4.28,4.28,0,0,0,3.66,3.53,36.1,36.1,0,0,0,8.44-.13,5.4,5.4,0,0,0,4.27-6.34L452.24,1272Z" transform="translate(0 -19.23)"/><path class="cls-43" d="M547.06,1334.47c-14.2-.4-21.55-2.07-25.35-3.62,0,1.41,0,2.85,0,4.34a2.81,2.81,0,0,0,2.68,2.85l78-.51c2.49,0,3.94-2.9,2.86-5.18C595.06,1333.19,569,1335.08,547.06,1334.47Z" transform="translate(0 -19.23)"/><path class="cls-44" d="M605.28,1332.35a3.64,3.64,0,0,0-.3-.59c-6.89-9.62-24.43-28.78-59.09-37.1l-16.63-.52s-7.41,12.87-7.55,36.71c3.8,1.55,11.15,3.22,25.35,3.62C569,1335.08,595.06,1333.19,605.28,1332.35Z" transform="translate(0 -19.23)"/><path class="cls-45" d="M525.43,1269.71c.27,1.23,3.73,19.89,5.07,27.12a3.61,3.61,0,0,0,3.25,3.07,37.84,37.84,0,0,0,11.39-.9,4.91,4.91,0,0,0,3.41-5.16l-1.86-29.51Z" transform="translate(0 -19.23)"/><path class="cls-46" d="M512.83,925.23s22.88,157.17,39.39,344.21c.3,3.49-2.47,6.52-5.89,7.24-5.05,1.06-12.46,2.32-18.6,2.15a6.88,6.88,0,0,1-6.56-5.75c-5.63-33-45.75-210-56.28-248.92,0,0-12.1,165.46-8.23,251.31a4.08,4.08,0,0,1-3.59,4.23,68.91,68.91,0,0,1-14.93,0,5.45,5.45,0,0,1-4.85-4.62c-4-27.91-27.06-194-26.08-313.72.05-6.75,7.92-62.2,7.92-62.2Z" transform="translate(0 -19.23)"/><path class="cls-47" d="M708.9,775S702.5,758.1,695,759.64s-15.66,7.29-15.66,7.29l-12,16.25s33.73,13.29,45.6,5.68c0,0,34.45,5.95,78-1.19a170.33,170.33,0,0,1-12.26-36.94C756.6,763.2,732.87,772.52,708.9,775Z" transform="translate(0 -19.23)"/><path class="cls-48" d="M891.4,652.69s-49.33,62.13-112.76,98a170.33,170.33,0,0,0,12.26,36.94c32.9-5.4,71-18.29,103.27-46.92Z" transform="translate(0 -19.23)"/><path class="cls-49" d="M521.7,660.91l3.06,82.25a227,227,0,0,0,24.87,7.06c4.93-15.88,15.79-35.38,24.68-49.87C541.64,688.8,521.7,660.91,521.7,660.91Z" transform="translate(0 -19.23)"/><path class="cls-50" d="M684.84,659.51C640,707.9,603.73,710.75,574.31,700.35c-8.89,14.49-19.75,34-24.68,49.87,119.7,26.39,147.89-83.66,147.89-83.66Z" transform="translate(0 -19.23)"/><path class="cls-51" d="M411.69,934.29a6.49,6.49,0,0,1-4.25-5.45c-3-29.51-17.77-212.49,75.21-287.76,0,0,5.33-14,49.16,20.34s20.37,70.24,9.87,119.82c-12.69,60-35,109-25.12,146a5.12,5.12,0,0,1-3.13,6.14C479.38,945.88,445.47,946.29,411.69,934.29Z" transform="translate(0 -19.23)"/><path class="cls-52" d="M518.92,586.26c0,2.6-37.16,55.33-37.16,55.33s6.67,13.13,38.48,23.79l27.47-56.47Z" transform="translate(0 -19.23)"/><path class="cls-53" d="M504.32,767.31s70.44,59,146.51,33.26a18.12,18.12,0,0,1,14.28,1.07L687,813.19A19.52,19.52,0,0,0,712.85,806c3-5.08,5.63-10.89,6.14-16.45L676.2,772.18l3.16-5.25s-20.89-1.77-26.36,13.21c0,0-39.79,16.55-106.9-57.27C546.1,722.87,515.65,748.77,504.32,767.31Z" transform="translate(0 -19.23)"/><path class="cls-54" d="M500.53,766.7a1.17,1.17,0,0,1-.67-.2c-29.66-20-43.62-52.39-43.76-52.71a1.21,1.21,0,0,1,2.23-.94c.13.31,13.82,32,42.87,51.65a1.2,1.2,0,0,1,.33,1.67A1.18,1.18,0,0,1,500.53,766.7Z" transform="translate(0 -19.23)"/><path class="cls-55" d="M544.71,721.87a1.2,1.2,0,0,1-1-.55c-.09-.14-9.15-14.24-26.41-45.15-5.3-9.5-12.28-15.52-20.73-17.88-14-3.91-27.47,3.59-27.61,3.66a1.2,1.2,0,1,1-1.19-2.09c.58-.33,14.45-8.09,29.43-3.9,9.1,2.54,16.57,8.94,22.21,19,17.21,30.83,26.24,44.89,26.33,45a1.21,1.21,0,0,1-.36,1.67A1.2,1.2,0,0,1,544.71,721.87Z" transform="translate(0 -19.23)"/><path class="cls-56" d="M548.15,556s13.21,30.34,14.1,46.27,4.32,26.27-14.1,29.47-33.93-6-42.33-21.83c0,0-13.17-24.45-10.22-34.46S548.15,556,548.15,556Z" transform="translate(0 -19.23)"/><path class="cls-57" d="M512.11,598.54l1-.46a2.53,2.53,0,0,0,1.23-3.47c-2.59-5-7.66-16.52-1.12-19.2,8.43-3.46,41.82-10.27,49-22.12,6.92-11.38.78-26.08-8.43-30.26a1.28,1.28,0,0,0-1.67.54l-.76,1.45a1.25,1.25,0,0,1-2.31-.23h0a1.25,1.25,0,0,0-2.26-.33c-2.21,3.55-8.19,9.3-24.18,12.25C500,540.9,485,550.09,484.58,565.79a1.26,1.26,0,0,1-1.94,1c-1.68-1-4.36-1.5-7.95,1.51-6.24,5.25-3.69,18.86,10,30.06a1.24,1.24,0,0,1-.06,2c-2.48,1.61-6.17,5.45,3.41,10.58,9.9,5.29,17.3,4.86,20.15,4.39a1.25,1.25,0,0,0,1-1.51l-3-13.8a1.25,1.25,0,0,1,1.22-1.52Z" transform="translate(0 -19.23)"/><path class="cls-58" d="M512.68,601.45s-5-19.38-13.73-14,4.51,21.72,11.5,22.45Z" transform="translate(0 -19.23)"/><path class="cls-59" d="M665.11,801.64s17.9,17.51,21.35,15a62.91,62.91,0,0,0,7.34-7.86,7.7,7.7,0,0,0,.52-9.06l-4.22-6.51a12.2,12.2,0,0,0-18.21-2.66A22.11,22.11,0,0,0,665.11,801.64Z" transform="translate(0 -19.23)"/><path class="cls-60" d="M952.92,928.06c-9.65-45.82-19.29-72.35-51.6-159.2-10.16-27.33-19.39-55-14.93-83.8l5-32.37s62.77-21.24,132.35-.89c0,0,94.94,41.24,30.46,244.91C1025.14,929.23,991.13,938.49,952.92,928.06Z" transform="translate(0 -19.23)"/><path class="cls-61" d="M902.09,611.38l16.27,39.11a7.79,7.79,0,0,0,5.89,4.68c9.39,1.61,32.08,4.12,47-5.68a3.78,3.78,0,0,0,1-5.32L942.18,601Z" transform="translate(0 -19.23)"/><path class="cls-62" d="M918.92,551.56c-.68.64-28.85,56-28.85,56L922,622.92l34.49-48.46S930.36,540.78,918.92,551.56Z" transform="translate(0 -19.23)"/><path class="cls-63" d="M942,580.28l-15.92,26.54a5.09,5.09,0,0,1-.87,1.09c-1.9,1.76-8.38,6.89-13.4-.09-4.27-6-8.28-11.37-12.58-13.6a5.08,5.08,0,0,0-6.87,2.26,190.41,190.41,0,0,0-10.89,25.85,5.06,5.06,0,0,0,2.95,6.21c6.46,2.62,19.24,7.36,30.57,8.92a5.1,5.1,0,0,0,4.82-2c4.88-6.69,18.62-25.36,23.32-30,4.36-4.35,12.4-2.71,16-1.67a5.08,5.08,0,0,0,4.06-.53c3.68-2.22,10.1-7.73,4.23-17.08a5.09,5.09,0,0,1,1.58-6.92c4.1-2.7,8.56-7.77,4.31-16s-12-9.06-17.2-8.42a5.29,5.29,0,0,1-5.55-3.09,3.38,3.38,0,0,0-2.62-2.07,4.94,4.94,0,0,1-4-5.8c.92-4.7.22-10.81-7.29-14.94-13.77-7.58-25.84,4.76-28.9,15.18s12.33,17.78,22,19c7.11.9,11,8.67,12.58,12.73A5.11,5.11,0,0,1,942,580.28Z" transform="translate(0 -19.23)"/><path class="cls-64" d="M937.12,615.13s6.12-17.92,14-17.26,14,8.47,4.3,17.25C943.29,626,937.12,615.13,937.12,615.13Z" transform="translate(0 -19.23)"/><path class="cls-65" d="M946.74,1331.89c15.16,1.31,41.47,3.44,62.22,4.35,12.46.55,19.64-.67,23.78-2.33,0,.47,0,.91,0,1.32a4.29,4.29,0,0,1-4.08,4,726.7,726.7,0,0,1-81.46.08,3.05,3.05,0,0,1-2.49-4.59A25.64,25.64,0,0,1,946.74,1331.89Z" transform="translate(0 -19.23)"/><path class="cls-66" d="M1009,1336.24c-20.75-.91-47.06-3-62.22-4.35,14.9-18.29,62.22-30.62,62.22-30.62h13.36a56,56,0,0,1,10.42,32.64C1028.6,1335.57,1021.42,1336.79,1009,1336.24Z" transform="translate(0 -19.23)"/><path class="cls-67" d="M1024.57,1279.46l-1.25,24.74a5.66,5.66,0,0,1-4.83,5.32,22,22,0,0,1-10-.83,6.69,6.69,0,0,1-4.49-5.14l-4.32-24.09Z" transform="translate(0 -19.23)"/><path class="cls-68" d="M1198.12,1336.05c6.58-.91,9.55-4.33,10.8-8l0,.1c1,3.85-1.27,7.84-5.75,9.74a37.57,37.57,0,0,1-16,2.5c-4.93-.21-9.46-2.25-12-5.52l0-.05C1180.2,1337.29,1187.16,1337.58,1198.12,1336.05Z" transform="translate(0 -19.23)"/><path class="cls-69" d="M1167.12,1279.3h11c16.79-.34,27.33,35.06,30.78,48.77-1.25,3.65-4.22,7.07-10.8,8-11,1.53-17.92,1.24-22.87-1.21-9.07-11.93-13.56-29.41-15.72-39.61A13.9,13.9,0,0,1,1167.12,1279.3Z" transform="translate(0 -19.23)"/><path class="cls-70" d="M1176.73,1256.34l6.12,24.33a6.61,6.61,0,0,1-3.44,7.49c-3.42,1.75-8.24,3.6-12.67,3.07a5.5,5.5,0,0,1-4.5-3.68l-9-25.61Z" transform="translate(0 -19.23)"/><path class="cls-71" d="M1184,1263.37c-7.62,6.75-32.38,7.64-32.38,7.64-89.2-214.08-126.38-273-126.38-273,12.88,80.8,2.77,288.21,2.77,288.21-14.72,6.5-33.69,0-33.69,0-1.2-132.28-19.82-274.43-43.84-365.38,60.28-1.36,93-14.5,103.51-22.78C1104.28,979.07,1184,1263.37,1184,1263.37Z" transform="translate(0 -19.23)"/><path class="cls-72" d="M681,650.07s-3.92-7.09-3.49-12.79-3.14-14.08.64-13.46,4.57.11,5.59,7S694.05,662.86,681,650.07Z" transform="translate(0 -19.23)"/><path class="cls-73" d="M709.62,607.73a3.6,3.6,0,0,0-4.4-3.37l-26.09,5.93a2,2,0,0,0-1.57,2.22l7.58,67.81a1.1,1.1,0,0,0,.42.74,1.12,1.12,0,0,0,.81.23l22.77-2.76a3.6,3.6,0,0,0,3.17-3.72Z" transform="translate(0 -19.23)"/><path class="cls-74" d="M702.29,611.64a2.08,2.08,0,0,0-.83-1.53,2,2,0,0,0-1.71-.33l-17.16,4.29a2,2,0,0,0-1.53,2.21L687.57,674a1.07,1.07,0,0,0,.44.76,1.11,1.11,0,0,0,.85.2l15.83-2.82a1.09,1.09,0,0,0,.9-1.14Z" transform="translate(0 -19.23)"/><path class="cls-75" d="M692.42,610.09c.05.2-.23.43-.62.52l-5.74,1.19c-.39.08-.74,0-.78-.23l0-.2c0-.2.24-.43.63-.51l5.74-1.19c.39-.08.74,0,.78.22Z" transform="translate(0 -19.23)"/><path class="cls-76" d="M718.68,625c-4.21-1.55-12.46-15.83-14-11.13s.67,11.13,0,13.13-5.23,13.09-3.17,18.19c1.48,3.68,3.92,15,5.17,21a4.3,4.3,0,0,0,8.43,0C715.24,665.39,722.9,626.51,718.68,625Z" transform="translate(0 -19.23)"/><path class="cls-77" d="M994.69,865.67a6.12,6.12,0,0,0-4.43,3.43l-10.83,24.16c-1.43,3.21.29,7.16,3.9,8.94l54.9,27a8,8,0,0,0,5.9.51,6,6,0,0,0,3.88-3.67l6.38-18.17a7,7,0,0,0-3.17-8l-50.45-33A8.19,8.19,0,0,0,994.69,865.67Z" transform="translate(0 -19.23)"/><path class="cls-78" d="M1088,816.36c11.74-88.67-56.59-156.85-56.59-156.85l-40.66,47.4c30.87,38.47,45.54,73.73,52.24,101.42C1051.85,805.74,1073.25,801.65,1088,816.36Z" transform="translate(0 -19.23)"/><path class="cls-79" d="M1043,810.84a2.53,2.53,0,0,1-2.45-1.92c-8.26-34.14-25.67-67.93-51.75-100.44a2.51,2.51,0,1,1,3.92-3.15c26.55,33.09,44.29,67.55,52.73,102.4a2.51,2.51,0,0,1-1.85,3A2.46,2.46,0,0,1,1043,810.84Z" transform="translate(0 -19.23)"/><path class="cls-80" d="M1043,811.62c6.23,25.73,5.58,44.94,4.63,54.1a7.14,7.14,0,0,1-6.6,6.4c-3.94.28-9.3.64-14.09.92-5.26.3-11.1-3-15-5.81a2.35,2.35,0,0,0-3.46,3c2.91,5.71,10.32,10.79,15.42,13.77a2.44,2.44,0,0,1-.57,4.45l-14,4a4.32,4.32,0,0,0-1.4,7.62c32.23,23.89,53.09-9.42,53.09-9.42,15.82-24.45,24-48.36,27-70.94C1073.25,804.94,1051.85,809,1043,811.62Z" transform="translate(0 -19.23)"/></g></g></g></svg>