<svg width="163" height="107" viewBox="0 0 163 107" fill="none" xmlns="http://www.w3.org/2000/svg">
<path d="M161.918 96.1418L156.794 73.6001C154.404 63.1834 145.183 55.8411 134.594 55.8411C133.228 55.8411 132.033 56.5236 131.179 57.5492L122.471 70.1862C121.275 71.7228 119.056 71.7228 117.86 70.1862L109.151 57.5492C108.468 56.5248 107.102 55.8411 105.736 55.8411C95.1488 55.8411 85.7564 63.1834 83.5361 73.6001L78.4128 96.1418C77.2169 101.265 81.1453 106.046 86.2687 106.046H154.063C159.185 106.046 163.112 101.265 161.917 96.1418H161.918Z" fill="#333333"/>
<path d="M120.08 52.4257C132.033 52.4257 141.768 42.6915 141.768 30.7382V21.6876C141.768 9.73426 132.033 0 120.08 0C108.127 0 98.3926 9.73426 98.3926 21.6876L98.3938 30.9083C98.5641 42.6915 108.298 52.4254 120.08 52.4254L120.08 52.4257Z" fill="#333333"/>
<path d="M85.4145 43.8874V21.858C85.4145 18.6132 82.682 15.8806 79.4371 15.8806L37.5995 15.8818C34.3546 15.8818 31.6221 18.6143 31.6221 21.8592V43.8874C31.6221 47.1323 34.3546 49.8648 37.5995 49.8648H40.5023V58.4031C40.5023 60.9641 43.5755 62.3304 45.454 60.4519L56.2125 49.6934H79.4367C82.6815 49.8637 85.4129 47.1312 85.4129 43.8876L85.4145 43.8874ZM44.6015 36.8857C42.3812 36.8857 40.5028 35.0072 40.5028 32.787C40.5028 30.5668 42.3813 28.6884 44.6015 28.6884C46.8217 28.6884 48.7002 30.5668 48.7002 32.787C48.7002 35.1777 46.992 36.8857 44.6015 36.8857ZM58.6049 36.8857C56.3846 36.8857 54.5062 35.0072 54.5062 32.787C54.5062 30.5668 56.3847 28.6884 58.6049 28.6884C60.8251 28.6884 62.7036 30.5668 62.7036 32.787C62.5321 35.1777 60.8251 36.8857 58.6049 36.8857ZM72.4366 36.8857C70.2163 36.8857 68.3379 35.0072 68.3379 32.787C68.3379 30.5668 70.2164 28.6884 72.4366 28.6884C74.6568 28.6884 76.5353 30.5668 76.5353 32.787C76.3638 35.1777 74.6568 36.8857 72.4366 36.8857Z" fill="#333333"/>
<path d="M53.823 77.8698L45.4551 71.2099C43.747 69.8436 41.186 70.1855 39.8199 71.7221C38.2832 73.4303 37.2589 74.625 37.0873 74.967C34.5263 77.528 29.2315 73.771 23.7676 68.3071C18.3025 62.842 14.5469 57.5486 17.1077 54.9874C17.4496 54.6455 18.474 53.6211 20.3526 52.2548C22.0607 50.8886 22.2311 48.3275 20.8648 46.6196L14.2049 38.2517C13.009 36.8855 11.1317 36.3733 9.42348 37.0558C7.20316 38.0802 3.10545 41.3249 2.08116 42.5209C-3.89626 48.4983 3.61777 62.3301 16.767 75.4787C29.9163 88.628 43.748 96.142 49.7248 90.1646C50.7492 89.1402 54.1644 85.0413 55.1899 82.8223C55.7022 80.945 55.1899 79.0666 53.8237 77.8707L53.823 77.8698Z" fill="#333333"/>
</svg>
