<svg width="183" height="107" viewBox="0 0 183 107" fill="none" xmlns="http://www.w3.org/2000/svg">
<path d="M182.141 36.2821C178.626 28.8882 175.044 21.5119 171.53 14.1206C169.708 10.2425 167.947 6.33278 166.19 2.44066C165.073 -0.0720143 163.118 -0.699239 160.897 0.813975C156.379 3.90287 142.765 13.223 135.058 13.3072C130.932 13.3531 126.928 12.7985 123.017 11.7302C120.454 11.0431 117.941 10.1699 115.443 9.18569C111.598 7.65844 107.818 6.04833 104.302 5.9156C101.661 5.89903 99.9831 6.09408 98.4724 7.39439L98.1435 7.69015L95.0061 10.5649H94.9895L82.9477 21.6035C82.7169 21.8177 82.504 22.0472 82.2911 22.2779C82.026 22.473 81.7646 22.6706 81.5339 22.9026L69.493 33.9246C69.2788 34.1197 69.0812 34.3211 68.9168 34.5149C68.7855 34.6296 68.6695 34.78 68.5573 34.9241C68.2118 35.3703 67.9466 35.9133 67.8331 36.4194C67.1116 40.0694 70.9552 45.2591 74.6357 45.9321C79.3819 46.7887 83.7825 45.918 87.6276 43.1045C89.9911 41.3809 92.5853 39.4242 95.218 37.4393C95.9421 36.8783 96.6649 36.3353 97.3877 35.7947C97.4374 35.7476 97.4884 35.7144 97.5356 35.6813C98.224 35.1369 98.915 34.6117 99.6085 34.089C99.6085 34.089 99.6085 34.0712 99.6225 34.0712C101.675 32.7721 104.056 32.0977 106.536 32.0977C107.719 32.0977 108.87 32.2482 109.97 32.5401C111.746 33.0207 113.388 33.8748 114.834 35.0387C114.883 35.0553 114.916 35.1025 114.965 35.1369C115.193 35.3358 115.442 35.5512 115.67 35.7616C115.734 35.8279 115.783 35.8763 115.851 35.9426C116.411 36.4028 116.952 36.9115 117.494 37.4393C119.055 38.918 120.532 40.4606 121.98 42.0706L127.383 47.4923C127.63 47.723 127.829 47.9691 128.043 48.2138C128.287 48.428 128.515 48.6256 128.746 48.8589L140.295 60.3897C140.295 60.4076 140.295 60.4076 140.309 60.4076L145.324 65.4188C146.815 66.204 148.346 65.9555 149.956 64.6271C152.422 62.5746 156.212 59.5813 158.725 57.5951C162.458 54.6375 177.124 44.1636 180.907 41.2914C182.667 39.9439 183.127 38.35 182.141 36.2821Z" fill="#333333"/>
<path d="M51.2619 54.5581C48.6906 51.9868 44.5181 51.9868 41.9454 54.5581L30.4006 66.103C27.8254 68.6781 27.8254 72.8507 30.3968 75.4194C32.9732 77.9959 37.1458 77.9959 39.7159 75.4245L51.262 63.8745C53.8346 61.3032 53.8346 57.1307 51.262 54.558L51.2619 54.5581Z" fill="#333333"/>
<path d="M64.9889 64.9624C62.4137 62.3885 58.2438 62.3885 55.6685 64.9624L44.1223 76.5085C41.551 79.0798 41.551 83.251 44.1223 85.825C46.6988 88.3989 50.8701 88.3989 53.4414 85.8263L64.9876 74.2801C67.5602 71.7075 67.5602 67.5337 64.9888 64.9624L64.9889 64.9624Z" fill="#333333"/>
<path d="M79.3612 73.4671C76.7899 70.8957 72.6174 70.8957 70.0447 73.4671L58.4999 85.0171C55.9247 87.5872 55.9247 91.7609 58.4986 94.3323C61.0737 96.9074 65.2437 96.9074 67.8177 94.3336L79.3625 82.7887C81.9326 80.2123 81.9326 76.0436 79.3612 73.4674L79.3612 73.4671Z" fill="#333333"/>
<path d="M94.1647 91.9031C95.5555 89.9348 95.7251 87.3876 94.6784 85.2676C94.3789 84.6238 93.9492 84.0247 93.4151 83.4892C92.8784 82.9538 92.2817 82.5255 91.6367 82.2246C89.6441 81.2417 87.2449 81.3488 85.3403 82.5267C84.889 82.7843 84.4836 83.1042 84.0974 83.4905L72.5564 95.0533C69.9864 97.6234 69.9864 101.801 72.5564 104.37C75.1265 106.94 79.3003 106.94 81.8716 104.37L93.4151 92.8262C93.6943 92.5521 93.9493 92.2271 94.1648 91.9033L94.1647 91.9031Z" fill="#333333"/>
<path d="M127.763 53.6804C127.636 53.5325 127.485 53.3808 127.333 53.2546L124.914 50.8299L124.488 50.4079L120.744 46.6369L118.577 44.4952L115.387 41.2826L115.194 41.1105L112.944 38.8604C112.385 38.2842 111.765 37.8113 111.102 37.4492C110.309 36.9533 109.413 36.6104 108.488 36.4408C107.867 36.2713 107.206 36.205 106.541 36.205C104.914 36.205 103.35 36.6308 101.979 37.4492C101.659 37.6226 101.356 37.8113 101.078 38.0471C100.738 38.2842 100.438 38.5609 100.137 38.8604C100.094 38.9012 100.029 38.9459 99.9856 39.0121C99.1736 39.7197 98.3169 40.4247 97.4831 41.108C96.6481 41.7709 95.8106 42.4159 94.9552 43.0559C94.4618 43.4193 93.9468 43.8055 93.4369 44.1485V44.1689C91.0567 45.8414 88.5301 47.3636 85.9166 48.6664C77.374 52.8186 68.765 50.9139 63.7754 42.1572C63.5816 41.8155 63.4095 41.4739 63.282 41.108C63.1099 40.6351 62.9799 40.1647 62.897 39.6739C62.4457 36.9521 63.3904 33.9793 65.3804 32.0926C70.8429 26.9538 76.3058 21.7909 81.7442 16.6328C83.775 14.727 85.8324 12.7981 87.9107 10.8067C88.4257 10.3134 88.9611 9.82129 89.4953 9.30751C87.9323 8.00081 86.1769 7.70249 84.4214 7.61708C84.2264 7.59286 84.0556 7.57501 83.8618 7.57501C77.1588 7.29327 70.694 8.73002 64.2677 10.3579C63.9898 10.4217 63.7336 10.5084 63.4544 10.5721C63.3027 10.6155 63.1523 10.6575 63.0044 10.6996C62.1668 10.9992 61.3535 11.2567 60.521 11.4696C60.2189 11.555 59.9422 11.6417 59.6414 11.7271C57.863 12.2829 56.0642 12.7776 54.2425 13.0325C51.5883 13.3959 49.1252 13.4405 47.5842 13.3117C44.5424 13.0759 40.5802 11.7896 36.618 9.84289C30.5562 6.84322 24.4968 2.68721 21.7547 0.805771C20.6839 0.0982312 19.701 -0.137593 18.8239 0.0778342C17.8589 0.313678 17.0455 1.127 16.4463 2.435C14.6896 6.32973 12.9354 10.2496 11.1137 14.1264C7.60275 21.5154 4.02557 28.8799 0.512349 36.269C-0.473082 38.3457 -0.0217997 39.9519 1.73491 41.2779C5.52357 44.1679 20.1933 54.6405 23.9196 57.597C24.4767 58.0483 25.0988 58.5403 25.7604 59.0541C25.8446 59.1178 25.93 59.1841 26.018 59.2466C27.2188 60.1237 28.2655 60.8975 29.1247 61.5591L39.0391 51.6487C41.0507 49.6306 43.7291 48.5164 46.5975 48.5164C48.7175 48.5164 50.7291 49.1436 52.4653 50.2769C53.0632 50.6606 53.642 51.1361 54.1558 51.6499C54.3903 51.8845 54.6274 52.1178 54.8186 52.374C54.9691 52.5474 55.0966 52.7182 55.2266 52.8852C55.3541 53.0803 55.5045 53.2766 55.632 53.4678C55.7837 53.7024 55.9099 53.9574 56.0399 54.1728C56.0616 54.2353 56.1253 54.299 56.1483 54.3844C56.2337 54.5769 56.3421 54.7694 56.4084 54.9441C56.4925 55.1124 56.5562 55.2845 56.62 55.4553C56.6633 55.6287 56.7258 55.7791 56.7717 55.9308C56.8775 56.2049 56.9438 56.4662 56.9859 56.739C57.0496 56.9762 57.0917 57.1903 57.1363 57.4262C57.2026 57.7283 57.2217 58.0279 57.2446 58.3249C57.288 58.6691 57.3109 59.0325 57.288 59.3741C57.3301 59.3524 57.3938 59.332 57.4155 59.332C57.6934 59.2466 57.9509 59.1842 58.2288 59.1421C58.4659 59.1 58.7247 59.0324 58.9797 59.0324C59.1492 58.9917 59.3214 58.97 59.5151 58.97C59.793 58.9457 60.0505 58.9266 60.3285 58.9266C60.6497 58.9266 60.9914 58.9483 61.2922 58.97C61.3764 58.97 61.4643 58.9916 61.5497 58.9916C62.1693 59.0758 62.7927 59.1841 63.3906 59.3754C64.2256 59.6074 65.0415 59.9733 65.8102 60.4462C65.8319 60.4462 65.8535 60.4462 65.8765 60.4883C66.069 60.5979 66.2424 60.7241 66.4119 60.8325C66.584 60.9421 66.7561 61.0696 66.9257 61.2162C67.0761 61.3259 67.2049 61.4317 67.3311 61.5604C67.521 61.7121 67.7148 61.8842 67.8869 62.0563C68.124 62.2922 68.3178 62.5293 68.5332 62.7639C68.6186 62.8722 68.7015 62.978 68.7869 63.1081C68.9807 63.3222 69.1082 63.5326 69.2586 63.7455C69.432 64.0055 69.6028 64.2592 69.7303 64.5435C70.0719 65.1618 70.3511 65.8031 70.5436 66.4902C70.629 66.7643 70.7157 67.0256 70.7591 67.3022C70.8215 67.584 70.8866 67.8632 70.907 68.136C72.1053 67.6694 73.3891 67.4323 74.6969 67.4323C77.5678 67.4323 80.245 68.5414 82.2553 70.5569C83.5199 71.8228 84.397 73.322 84.8891 74.9284C85.1262 75.6525 85.2741 76.383 85.3404 77.1339C85.3608 77.4322 85.3825 77.7318 85.3825 78.0097C85.8325 77.8618 86.2838 77.7343 86.7529 77.6476C87.0308 77.5839 87.3062 77.5635 87.5879 77.5201H87.8034C88.1233 77.4768 88.4446 77.4564 88.7646 77.4564C88.98 77.4564 89.1916 77.4564 89.4096 77.4768C92.023 77.6285 94.4414 78.721 96.3255 80.609C98.4034 82.6832 99.4526 85.4254 99.4526 88.1661C99.4526 88.5065 99.4322 88.829 99.3889 89.1516C99.4131 89.1732 99.4131 89.1924 99.3889 89.214C99.3672 89.4537 99.3481 89.6895 99.3034 89.8999C99.3034 89.942 99.2818 89.9637 99.2818 90.0083C99.241 90.4379 99.1339 90.8216 99.0039 91.2053C98.9376 91.4654 98.8534 91.7191 98.7463 91.9779C98.7463 91.9779 98.7463 92.0021 98.7259 92.0416C98.6826 92.15 98.6405 92.2775 98.5742 92.4075C98.5118 92.5592 98.4264 92.7313 98.3601 92.8792C98.2963 92.985 98.23 93.115 98.1701 93.2425C97.9126 93.7346 97.613 94.1833 97.2714 94.6346C97.2293 94.6984 97.1617 94.7825 97.0993 94.8501C97.0139 94.9546 96.9259 95.0604 96.8379 95.1446C96.6913 95.36 96.4975 95.5563 96.3267 95.7233L86.884 105.166C88.1907 105.894 89.6899 106.303 91.2323 106.303C93.3307 106.303 95.3424 105.596 96.9269 104.267C96.969 104.243 96.9932 104.224 97.0353 104.182C97.229 104.031 97.4228 103.838 97.614 103.647C98.5357 102.725 99.219 101.656 99.6678 100.519C100.031 99.5582 100.225 98.5268 100.245 97.5235C101.594 98.291 103.115 98.6989 104.679 98.6989C107.101 98.6989 109.37 97.7594 111.081 96.0447C113.223 93.903 114.061 90.9275 113.567 88.1218C115.195 89.5164 117.251 90.2635 119.413 90.2635C121.832 90.2635 124.079 89.3201 125.794 87.6068C128.044 85.3809 128.857 82.2526 128.256 79.3637C129.65 80.2166 131.235 80.6921 132.904 80.6921C135.345 80.6921 137.616 79.7449 139.31 78.0111C142.842 74.5015 142.842 68.7622 139.31 65.231L127.763 53.6804Z" fill="#333333"/>
</svg>
