<svg width="16" height="11" viewBox="0 0 16 11" fill="none" xmlns="http://www.w3.org/2000/svg">
<path d="M1.23069 0C1.06729 0 0.911467 0.032481 0.769078 0.0897151L7.6347 6.20514C7.87394 6.41849 8.1395 6.41834 8.37833 6.20514L15.2308 0.0897151C15.0884 0.0324802 14.9326 0 14.7691 0H1.23058H1.23069ZM0.0127348 1.0577C0.00500796 1.11379 0 1.17246 0 1.23084V9.43603C0 9.6043 0.0354856 9.76455 0.0961545 9.91035L4.83319 5.35904L0.0127348 1.0577ZM15.9872 1.0577L11.1795 5.3526L15.9103 9.90392C15.969 9.75997 16 9.60143 16 9.43604V1.23085C16 1.17262 15.9948 1.11381 15.9873 1.05772L15.9872 1.0577ZM10.2564 6.17935L9.1987 7.128C8.52635 7.72841 7.48638 7.72738 6.81399 7.128L5.75629 6.18561L1.08959 10.66C1.13524 10.6652 1.1836 10.6663 1.23068 10.6663H14.7692C14.814 10.6663 14.8604 10.6643 14.9039 10.66L10.2562 6.17939L10.2564 6.17935Z" fill="white"/>
</svg>
