<svg width="17" height="18" viewBox="0 0 17 18" fill="none" xmlns="http://www.w3.org/2000/svg">
<path d="M15.7993 13.6211L15.7021 13.4266C15.4299 12.7849 12.0854 11.8127 11.8132 11.7933L11.5993 11.8127C11.1909 11.8904 10.7437 12.2599 9.86874 13.0182C9.69378 13.1738 9.46034 13.2127 9.24645 13.096C8.09926 12.4543 6.69926 11.1709 5.99923 10.3932C5.24089 9.55713 4.327 8.1765 3.89922 7.0681C3.8215 6.8542 3.89922 6.62091 4.0548 6.46535C5.04643 5.57084 5.47421 5.1432 5.51313 4.67646C5.53253 4.40425 4.94931 0.962568 4.34639 0.632012L4.17142 0.515366C3.78257 0.262546 3.1992 -0.106927 2.55753 0.0292542C2.40196 0.0681813 2.24639 0.126504 2.11035 0.204223C1.68271 0.476713 0.613225 1.21565 0.127113 2.16832C-0.164498 2.77107 -0.300665 8.235 3.78267 12.8433C7.82712 17.4128 12.8244 17.6072 13.5632 17.4517H13.5826L13.641 17.4323C14.6521 17.0628 15.5077 16.1101 15.8382 15.7017C16.441 14.9823 16.0327 14.1072 15.7993 13.6211L15.7993 13.6211Z" fill="white"/>
</svg>
