<svg xmlns="http://www.w3.org/2000/svg" width="23.388" height="23.389" viewBox="0 0 43.388 43.389">
  <g id="Group_455" data-name="Group 455" transform="translate(5189 -5386)">
    <path id="Path_85" data-name="Path 85" d="M958.544,587.093a2.544,2.544,0,1,0,2.543,2.543A2.543,2.543,0,0,0,958.544,587.093Z" transform="translate(-6114.363 4806.655)"/>
    <path id="Path_86" data-name="Path 86" d="M950.715,589.771A10.685,10.685,0,1,0,961.4,600.457,10.7,10.7,0,0,0,950.715,589.771Zm0,17.53a6.844,6.844,0,1,1,6.844-6.844A6.852,6.852,0,0,1,950.715,607.3Z" transform="translate(-6117.843 4807.239)"/>
    <path id="Path_87" data-name="Path 87" d="M961.2,624.12H943.876a13.047,13.047,0,0,1-13.032-13.033V593.763a13.047,13.047,0,0,1,13.032-13.033H961.2a13.048,13.048,0,0,1,13.034,13.033v17.324A13.048,13.048,0,0,1,961.2,624.12Zm-17.322-39.307a8.961,8.961,0,0,0-8.951,8.95v17.324a8.961,8.961,0,0,0,8.951,8.95H961.2a8.961,8.961,0,0,0,8.951-8.95V593.763a8.961,8.961,0,0,0-8.951-8.95Z" transform="translate(-6119.844 4805.269)"/>
  </g>
</svg>
