<svg xmlns="http://www.w3.org/2000/svg" width="20.625" height="33.236" viewBox="0 0 54.182 40.701">
  <g id="Group_376" data-name="Group 376" transform="translate(-74.5 -4987)">
    <g id="Group_375" data-name="Group 375">
      <g id="Group_374" data-name="Group 374">
        <g id="Group_373" data-name="Group 373">
          <g id="Group_372" data-name="Group 372">
            <g id="Group_371" data-name="Group 371">
              <path id="Path_82" data-name="Path 82" d="M686.843,586.62l-25.591-29.175v36.441h51.182V557.445Z" transform="translate(-585.252 4432.315)" stroke="#000" stroke-linecap="round" stroke-linejoin="round" stroke-width="3"/>
              <g id="Polygon_5" data-name="Polygon 5" transform="translate(123 5011) rotate(180)" stroke-linecap="round" stroke-linejoin="round">
                <path d="M 40.76159286499023 22.99999809265137 L 2.238411903381348 22.99999809265137 C 2.23841381072998 22.9999942779541 2.238412380218506 22.99999237060547 2.23841118812561 22.9999885559082 C 2.238411426544189 22.9999885559082 2.238411664962769 22.9999885559082 2.238411903381348 22.9999885559082 L 21.50000190734863 1.498697757720947 L 40.76158142089844 22.99999809265137 L 40.76159286499023 22.99999809265137 Z" stroke="none"/>
                <path d="M 21.49999618530273 2.997390747070312 L 4.476814270019531 21.99999809265137 L 38.52317428588867 21.99999809265137 L 21.49999618530273 2.997390747070312 M 21.49999618530273 0.4986953735351562 C 21.77305221557617 0.4986953735351562 22.04610633850098 0.6096134185791016 22.24483108520508 0.8314476013183594 L 41.50642013549805 22.33274841308594 C 42.08338165283203 22.97679710388184 41.62626266479492 23.99999809265137 40.76159286499023 23.99999809265137 L 2.238410949707031 23.99999809265137 C 1.373733520507812 23.99999809265137 0.9166221618652344 22.97679710388184 1.493572235107422 22.33274841308594 L 20.75516128540039 0.8314476013183594 C 20.95388603210449 0.6096134185791016 21.22694206237793 0.4986953735351562 21.49999618530273 0.4986953735351562 Z" stroke="none" fill="#000"/>
              </g>
            </g>
          </g>
        </g>
      </g>
    </g>
  </g>
</svg>
