<svg xmlns="http://www.w3.org/2000/svg" width="32.715" height="23.388" viewBox="0 0 52.715 43.388">
  <path id="Path_89" data-name="Path 89" d="M834.481,591.552a21.751,21.751,0,0,1-5.332,1.52c.857-.144,2.117-1.7,2.621-2.324a9.765,9.765,0,0,0,1.77-3.227c.046-.091.08-.207-.011-.276a.3.3,0,0,0-.282.023,27.189,27.189,0,0,1-6.322,2.419.422.422,0,0,1-.436-.116,5.175,5.175,0,0,0-.552-.564,11.2,11.2,0,0,0-3.062-1.877,10.657,10.657,0,0,0-4.7-.756,11.229,11.229,0,0,0-4.455,1.258,11.484,11.484,0,0,0-3.6,2.936,11.036,11.036,0,0,0-2.146,4.3,11.642,11.642,0,0,0-.113,4.538c.034.255.011.289-.218.255-8.681-1.292-15.878-4.4-21.72-11.055-.253-.29-.391-.29-.6.022-2.556,3.831-1.315,9.987,1.878,13.012.426.4.864.806,1.335,1.175a11.062,11.062,0,0,1-4.191-1.175c-.255-.159-.381-.068-.4.22a6.611,6.611,0,0,0,.069,1.244,11.136,11.136,0,0,0,6.864,8.878,6.575,6.575,0,0,0,1.392.426,12.407,12.407,0,0,1-4.11.127c-.3-.057-.414.093-.3.38,1.81,4.929,5.713,6.4,8.637,7.232.391.068.782.068,1.175.161-.024.035-.047.035-.069.069-.969,1.479-4.332,2.578-5.9,3.125a21.119,21.119,0,0,1-8.957,1.147c-.482-.071-.583-.066-.714,0-.133.082-.017.2.138.322.611.4,1.232.761,1.866,1.106a29.531,29.531,0,0,0,5.988,2.4c10.761,2.972,22.881.788,30.962-7.24,6.345-6.3,8.569-15,8.569-23.7,0-.341.4-.529.641-.709a20.939,20.939,0,0,0,4.215-4.382,1.334,1.334,0,0,0,.279-.84v-.045C834.7,591.414,834.694,591.455,834.481,591.552Z" transform="translate(-781.981 -586.352)"/>
</svg>
