<svg width="121" height="106" viewBox="0 0 121 106" fill="none" xmlns="http://www.w3.org/2000/svg">
<path d="M0.00104687 76.2546H120.248C120.248 81.0938 116.288 85.0536 111.449 85.0536L8.79907 85.0526C3.95987 85.0526 0 81.093 0 76.2546L0.00104687 76.2546ZM74.7887 36.3678L89.4529 44.727V25.6622L74.7887 34.0213V36.3678ZM120.248 8.79907V70.3889H0.00104687V8.79907C0.00104687 3.95987 3.96065 0 8.80011 0H111.45C116.289 0 120.249 3.95961 120.249 8.79907H120.248ZM95.3178 20.5307C95.3178 19.5037 94.7317 18.4778 93.851 18.0379C92.9713 17.4518 91.798 17.4518 90.9184 18.0379L74.7872 27.2767L74.7882 20.5306C74.7882 18.9175 73.4687 17.598 71.8556 17.598H27.8629C26.2498 17.598 24.9303 18.9176 24.9303 20.5306V49.8591C24.9303 51.4722 26.2499 52.7917 27.8629 52.7917H71.8556C73.4688 52.7917 74.7882 51.4721 74.7882 49.8591V43.2604L90.9194 52.4992C91.3593 52.7927 91.7991 52.939 92.3863 52.939C92.8261 52.939 93.4132 52.7927 93.8531 52.4992C94.7328 51.913 95.3199 51.0323 95.3199 50.0064L95.3178 20.5307ZM92.3852 99.7176H76.2551V90.9185L43.9938 90.9196V99.7186L27.8636 99.7176C26.2505 99.7176 24.931 101.037 24.931 102.65C24.931 104.263 26.2506 105.583 27.8636 105.583H92.3863C93.9994 105.583 95.3189 104.263 95.3189 102.65C95.3189 101.037 93.9993 99.7176 92.3863 99.7176H92.3852ZM30.7954 46.9264H68.9224V23.463H30.7954V46.9264Z" fill="#333333"/>
</svg>
